<svg width="25" height="24" viewBox="0 0 25 24" fill="none" xmlns="http://www.w3.org/2000/svg">
<path d="M5.41699 9.75C5.41575 8.86051 5.59057 7.97957 5.93138 7.15796C6.27219 6.33635 6.77225 5.59031 7.40272 4.96286C8.0332 4.33541 8.78163 3.83895 9.60488 3.5021C10.4281 3.16525 11.3099 2.99467 12.1994 3.00019C15.9109 3.02778 18.8797 6.11282 18.8797 9.83474V10.5C18.8797 13.8577 19.5822 15.8062 20.2009 16.8711C20.2675 16.9849 20.303 17.1142 20.3037 17.2461C20.3044 17.378 20.2703 17.5077 20.2049 17.6222C20.1395 17.7367 20.045 17.8319 19.931 17.8982C19.8171 17.9646 19.6876 17.9997 19.5557 18H4.74017C4.60828 17.9997 4.47882 17.9645 4.36484 17.8982C4.25085 17.8318 4.15639 17.7366 4.09096 17.6221C4.02554 17.5076 3.99147 17.3778 3.9922 17.2459C3.99293 17.1141 4.02843 16.9847 4.09511 16.8709C4.71417 15.806 5.41699 13.8575 5.41699 10.5L5.41699 9.75Z" stroke="#1D2026" stroke-width="1.5" stroke-linecap="round" stroke-linejoin="round"/>
<path d="M9.14844 18V18.75C9.14844 19.5456 9.46451 20.3087 10.0271 20.8713C10.5897 21.4339 11.3528 21.75 12.1484 21.75C12.9441 21.75 13.7071 21.4339 14.2698 20.8713C14.8324 20.3087 15.1484 19.5456 15.1484 18.75V18" stroke="#1D2026" stroke-width="1.5" stroke-linecap="round" stroke-linejoin="round"/>
</svg>
