<svg width="32" height="32" viewBox="0 0 32 32" fill="none" xmlns="http://www.w3.org/2000/svg">
<path opacity="0.4" d="M22.0002 4V16L17.9993 13L14.0002 16V4H9.00024C8.60628 4 8.21617 4.0776 7.85219 4.22836C7.48822 4.37912 7.1575 4.6001 6.87892 4.87868C6.60035 5.15725 6.37937 5.48797 6.2286 5.85195C6.07784 6.21593 6.00024 6.60603 6.00024 7V27C6.00024 26.606 6.07784 26.2159 6.2286 25.8519C6.37937 25.488 6.60035 25.1573 6.87892 24.8787C7.1575 24.6001 7.48822 24.3791 7.85219 24.2284C8.21617 24.0776 8.60628 24 9.00024 24H26.0002V4H22.0002Z" fill="black"/>
<path opacity="0.5" d="M6.00018 27V28H24.0002" stroke="black" stroke-width="2" stroke-linecap="round" stroke-linejoin="round"/>
<path d="M22.0002 4V16L17.9993 13L14.0002 16V4" stroke="#1D2026" stroke-width="2" stroke-linecap="round" stroke-linejoin="round"/>
<path d="M6.00024 27C6.00024 26.2044 6.31631 25.4413 6.87892 24.8787C7.44153 24.3161 8.20459 24 9.00024 24H26.0002V4H9.00024C8.20459 4 7.44153 4.31607 6.87892 4.87868C6.31631 5.44129 6.00024 6.20435 6.00024 7V27Z" stroke="#1D2026" stroke-width="1.5" stroke-linecap="round" stroke-linejoin="round"/>
</svg>
