<svg width="80" height="80" viewBox="0 0 80 80" fill="none" xmlns="http://www.w3.org/2000/svg">
<path d="M11.0002 49.4165C9.7968 49.6279 8.57219 49.6912 7.30539 49.86L3.44148 38.5431V50.3457C2.23805 50.4723 1.14016 50.6412 0 50.8101V29.1896H3.20938L7.60094 41.4569V29.1896H11.0002V49.4165ZM17.6511 37.1073C18.9602 37.1073 20.966 37.0439 22.1695 37.0439V40.4221C20.6703 40.4221 18.918 40.4221 17.6511 40.4854V45.5106C19.6359 45.3839 21.6205 45.2149 23.6262 45.1515V48.4028L14.2728 49.142V29.1896H23.6262V32.5678H17.6511V37.1073ZM36.1889 32.5679H32.6841V48.1076C31.5439 48.1076 30.4037 48.1076 29.306 48.1497V32.5679H25.8012V29.1896H36.1891L36.1889 32.5679ZM41.6784 36.8751H46.3024V40.2532H41.6784V47.9176H38.3634V29.1896H47.8015V32.5678H41.6784V36.8751ZM53.291 44.9616C55.2124 45.0037 57.1548 45.1517 59.034 45.2571V48.5932C56.0148 48.403 52.9955 48.2132 49.9129 48.1497V29.1896H53.291V44.9616ZM61.8843 48.8254C62.9611 48.8889 64.1012 48.9522 65.1991 49.0787V29.1896H61.8843V48.8254ZM80 29.1896L75.7138 39.472L80 50.8101C78.733 50.6412 77.4662 50.4089 76.1994 50.1978L73.7714 43.9482L71.3013 49.6912C70.0765 49.4799 68.8941 49.4165 67.6698 49.2476L72.0191 39.3453L68.0919 29.1896H71.7233L73.9402 34.8692L76.3051 29.1896H80Z" fill="#D81F26"/>
</svg>
