<svg width="100" height="100" viewBox="0 0 100 100" fill="none" xmlns="http://www.w3.org/2000/svg">
<path d="M15.919 40.1504H0.0489502V44.0104L1.49895 49.7504L6.04895 50.0104L9.90895 46.1504L17.549 44.5104L15.919 40.1504Z" fill="#00C425"/>
<path d="M0.0489502 44.0103V59.8802H3.90895L10.369 59.3402L9.91895 53.8702L0.0489502 44.0103V44.0103Z" fill="#3AF23A"/>
<path d="M3.90637 59.8798H19.7764V56.0198L18.0864 50.8798L13.7664 50.0098L3.90637 59.8798Z" fill="#006446"/>
<path d="M95.6784 47.9805L92.1884 51.1506L95.6784 54.3407V56.1807H95.5684L90.3884 51.4806V55.9507H88.8884V42.4304H90.3884V50.8806L95.5384 46.1905H95.6784V47.9805V47.9805ZM27.9884 55.9507H35.6484V54.4407H29.5484V42.8704H27.9884V55.9507ZM40.9484 46.2005C38.5984 46.2005 36.4584 48.1105 36.4584 51.1906C36.4584 54.1807 38.4184 56.1607 41.2384 56.1607C42.4984 56.1607 43.6584 55.8407 44.7084 55.0807V53.4707C43.6084 54.3907 42.3884 54.7807 41.2884 54.7807C39.5984 54.7807 38.0984 53.7307 37.9584 51.7706H45.0984C45.1184 51.5806 45.1584 51.1606 45.1584 51.0006C45.1584 47.8505 43.2584 46.2005 40.9484 46.2005V46.2005ZM40.9584 47.5705C42.2884 47.5705 43.6384 48.4305 43.6884 50.4606H37.9484C38.0384 48.8906 39.2484 47.5705 40.9584 47.5705ZM66.1484 46.2005C64.8784 46.2005 63.9584 46.8705 63.4084 47.8605C62.9484 46.8005 62.0984 46.2005 60.7384 46.2005C59.5484 46.2005 58.6684 46.8905 58.1884 47.8105H58.1484L57.9684 46.3905H56.7784V55.9407H58.2984V49.9106C58.2984 48.7406 59.0284 47.6505 60.3484 47.6505C61.6384 47.6505 62.2084 48.4105 62.2084 49.7906V55.9507H63.7284V49.8106C63.7284 48.7006 64.4684 47.6505 65.7684 47.6505C67.0784 47.6505 67.6384 48.4105 67.6384 49.7906V55.9507H69.1584V49.5806C69.1684 47.5805 68.2384 46.2005 66.1484 46.2005V46.2005ZM75.3184 46.2005C73.0384 46.2005 70.9084 48.1305 70.9084 51.1906C70.9084 54.2107 73.0284 56.1607 75.3184 56.1607C76.7484 56.1607 78.0984 55.4907 78.8184 54.1607H78.8384L79.0184 55.9507H80.2584V46.4005H79.0184L78.8384 48.1905H78.8184C78.0984 46.8805 76.7484 46.2005 75.3184 46.2005ZM75.5984 47.6205C77.3984 47.6205 78.7684 49.0706 78.7684 51.1806C78.7684 53.2806 77.4084 54.7407 75.5984 54.7407C73.8284 54.7407 72.4284 53.3107 72.4284 51.2006C72.4284 49.0506 73.8284 47.6205 75.5984 47.6205V47.6205ZM86.7384 46.2905C85.9084 46.2905 84.6484 46.6805 83.9984 47.9205H83.9784L83.8184 46.4005H82.5984V55.9507H84.1184V50.4506C84.1184 48.2405 85.9084 47.5505 87.3784 47.8505V46.3405C87.1784 46.3105 86.9884 46.2905 86.7384 46.2905V46.2905ZM54.8284 46.1805H54.7084L50.7184 50.1606L46.7384 46.1805H46.6184V48.1105L49.6884 51.1806L46.6184 54.2307V56.1807H46.7384L50.6984 52.1806L54.7084 56.1807H54.8284V54.2207L51.7284 51.1506L54.8284 48.0305V46.1805V46.1805ZM95.6784 42.6404V42.4304H97.3384V42.6404H96.6384V44.3005H96.3884V42.6304C96.3784 42.6404 95.6784 42.6404 95.6784 42.6404V42.6404ZM98.1784 42.4304L98.8984 44.0104L99.6184 42.4304H99.9584V44.3005H99.7184V42.7304L98.9984 44.3005H98.7884L98.0784 42.7304V44.3005H97.8384V42.4204H98.1784V42.4304Z" fill="#32323C"/>
<path d="M19.782 56.0204V40.1504H15.922L9.922 46.1504L19.782 56.0204Z" fill="#008A44"/>
</svg>
