<svg width="100" height="100" viewBox="0 0 100 100" fill="none" xmlns="http://www.w3.org/2000/svg">
<g clip-path="url(#clip0_2181_63702)">
<path d="M100 48.9829V47.2243H97.8161V44.4902L97.7425 44.5129L95.6913 45.1405L95.6508 45.1528V47.2244H92.4132V46.0703C92.4132 45.5329 92.5333 45.1217 92.7702 44.8475C93.0053 44.5765 93.3417 44.4388 93.7707 44.4388C94.0791 44.4388 94.3984 44.5114 94.7198 44.6547L94.8003 44.6907V42.8386L94.7624 42.8246C94.4626 42.7169 94.0549 42.6626 93.5495 42.6626C92.9125 42.6626 92.3337 42.8012 91.8289 43.076C91.3239 43.3511 90.9266 43.7438 90.6483 44.2432C90.3709 44.7419 90.2302 45.318 90.2302 45.9555V47.2243H88.7095V48.9829H90.2302V56.3919H92.4132V48.9829H95.6508V53.6912C95.6508 55.6303 96.5655 56.6129 98.3693 56.6129C98.6657 56.6129 98.9777 56.5782 99.2962 56.5102C99.6205 56.4403 99.8413 56.3706 99.9713 56.2961L100 56.2791V54.5041L99.9113 54.5629C99.7928 54.6418 99.6452 54.7063 99.4723 54.7543C99.2985 54.8032 99.1534 54.8276 99.041 54.8276C98.6185 54.8276 98.3058 54.7138 98.1119 54.4891C97.9157 54.2623 97.8162 53.8658 97.8162 53.3111V48.9829H100ZM83.8344 54.8279C83.042 54.8279 82.4173 54.5652 81.9771 54.0477C81.5341 53.5275 81.3097 52.7859 81.3097 51.8437C81.3097 50.8716 81.5341 50.1108 81.9773 49.5814C82.4178 49.0556 83.0365 48.7887 83.8166 48.7887C84.5736 48.7887 85.1761 49.0436 85.6078 49.5467C86.0415 50.0525 86.2617 50.8072 86.2617 51.7906C86.2617 52.7861 86.0547 53.5508 85.6465 54.0624C85.241 54.57 84.6314 54.8279 83.8344 54.8279V54.8279ZM83.9314 47.0034C82.4197 47.0034 81.2191 47.4464 80.363 48.32C79.5074 49.1937 79.0737 50.4028 79.0737 51.914C79.0737 53.3494 79.4971 54.504 80.3323 55.3451C81.1675 56.1865 82.3041 56.6127 83.7104 56.6127C85.1757 56.6127 86.3525 56.1636 87.2082 55.2778C88.0639 54.3931 88.4973 53.1954 88.4973 51.7195C88.4973 50.2617 88.0906 49.0985 87.288 48.263C86.485 47.4271 85.3555 47.0034 83.9314 47.0034V47.0034ZM75.5539 47.0034C74.5256 47.0034 73.675 47.2665 73.0253 47.7851C72.3715 48.3068 72.0399 48.991 72.0399 49.8189C72.0399 50.2493 72.1115 50.6316 72.2524 50.9559C72.3941 51.2812 72.6134 51.5676 72.9047 51.808C73.1939 52.0465 73.6402 52.2962 74.2317 52.5504C74.7289 52.755 75.0997 52.928 75.3352 53.0644C75.5655 53.1981 75.7288 53.3325 75.8211 53.4634C75.9108 53.5914 75.9563 53.7667 75.9563 53.983C75.9563 54.5989 75.495 54.8986 74.546 54.8986C74.1939 54.8986 73.7924 54.8251 73.3525 54.6802C72.9158 54.5375 72.5036 54.3285 72.1304 54.0605L72.0397 53.9955V56.0973L72.073 56.1128C72.3819 56.2554 72.7713 56.3756 73.2304 56.4702C73.6885 56.5649 74.1048 56.6131 74.4663 56.6131C75.5822 56.6131 76.4808 56.3488 77.1364 55.8271C77.7963 55.3018 78.1307 54.6015 78.1307 53.7449C78.1307 53.1269 77.9507 52.597 77.5958 52.1696C77.2434 51.7457 76.6318 51.3566 75.7787 51.0126C75.099 50.7398 74.6636 50.5133 74.4839 50.3395C74.3108 50.1715 74.2229 49.934 74.2229 49.6333C74.2229 49.3667 74.3314 49.1531 74.5542 48.9801C74.7787 48.8063 75.0913 48.7179 75.4832 48.7179C75.847 48.7179 76.2191 48.7753 76.5892 48.8879C76.959 49.0005 77.2839 49.1514 77.555 49.3358L77.6442 49.3968V47.403L77.61 47.3883C77.3598 47.2811 77.0299 47.1893 76.6293 47.1148C76.2304 47.0408 75.8686 47.0034 75.5539 47.0034V47.0034ZM66.3489 54.8279C65.5567 54.8279 64.9318 54.5652 64.4917 54.0477C64.0486 53.5275 63.8246 52.7861 63.8246 51.8437C63.8246 50.8716 64.0489 50.1108 64.4921 49.5814C64.9323 49.0556 65.5509 48.7887 66.3314 48.7887C67.088 48.7887 67.6906 49.0436 68.1223 49.5467C68.5562 50.0525 68.7763 50.8072 68.7763 51.7906C68.7763 52.7861 68.5692 53.5508 68.1609 54.0624C67.7555 54.57 67.1462 54.8279 66.3489 54.8279V54.8279ZM66.4462 47.0034C64.9341 47.0034 63.7333 47.4464 62.8777 48.32C62.0222 49.1937 61.5881 50.4028 61.5881 51.914C61.5881 53.35 62.0118 54.504 62.8471 55.3451C63.6823 56.1865 64.8188 56.6127 66.2251 56.6127C67.6902 56.6127 68.8673 56.1636 69.723 55.2778C70.5784 54.3931 71.0121 53.1954 71.0121 51.7195C71.0121 50.2617 70.6052 49.0985 69.8024 48.263C68.9992 47.4271 67.87 47.0034 66.4462 47.0034V47.0034ZM58.2744 48.8119V47.2243H56.1179V56.3917H58.2744V51.7022C58.2744 50.9048 58.4552 50.2497 58.8119 49.7549C59.1641 49.266 59.6335 49.0182 60.2066 49.0182C60.4008 49.0182 60.6189 49.0503 60.855 49.1136C61.0887 49.1766 61.258 49.245 61.3578 49.317L61.4485 49.3827V47.2086L61.4135 47.1936C61.2127 47.1083 60.9286 47.0652 60.5691 47.0652C60.0272 47.0652 59.5423 47.2394 59.1269 47.5822C58.7623 47.8835 58.4988 48.2967 58.2973 48.8119H58.2744ZM52.2562 47.0034C51.2669 47.0034 50.3844 47.2156 49.6339 47.6338C48.8817 48.0529 48.3001 48.6513 47.9043 49.4123C47.5103 50.1713 47.3103 51.058 47.3103 52.0469C47.3103 52.913 47.5042 53.7079 47.8876 54.4085C48.2712 55.1102 48.814 55.6592 49.5012 56.0399C50.1875 56.4202 50.9806 56.613 51.8588 56.613C52.8836 56.613 53.7586 56.4081 54.4601 56.004L54.4884 55.9878V54.0121L54.3978 54.0783C54.08 54.3098 53.7249 54.4946 53.3428 54.6277C52.9617 54.7607 52.6142 54.8279 52.3095 54.8279C51.4633 54.8279 50.784 54.5632 50.291 54.0412C49.7969 53.5185 49.5463 52.7846 49.5463 51.861C49.5463 50.9317 49.8076 50.1789 50.3225 49.6234C50.8359 49.0696 51.5164 48.7887 52.3451 48.7887C53.0538 48.7887 53.7445 49.0287 54.398 49.5027L54.4884 49.5684V47.4867L54.4592 47.4703C54.2133 47.3326 53.8779 47.219 53.4616 47.1328C53.047 47.0468 52.6415 47.0034 52.2562 47.0034V47.0034ZM45.8251 47.2244H43.6687V56.3917H45.8251V47.2244V47.2244ZM44.7689 43.319C44.414 43.319 44.1045 43.4399 43.8501 43.6793C43.5948 43.9194 43.4652 44.2217 43.4652 44.5785C43.4652 44.9296 43.5932 45.2264 43.8462 45.4601C44.0975 45.6931 44.408 45.8113 44.769 45.8113C45.13 45.8113 45.4416 45.6931 45.696 45.4605C45.9519 45.2264 46.0817 44.9297 46.0817 44.5785C46.0817 44.2342 45.9554 43.935 45.7065 43.689C45.4578 43.4435 45.1422 43.319 44.7689 43.319ZM39.3885 46.548V56.3917H41.5892V43.5997H38.5433L34.6718 53.1012L30.9147 43.5997H27.7448V56.3916H29.8129V46.547H29.8839L33.8513 56.3917H35.412L39.3175 46.548H39.3885V46.548Z" fill="#706D6E"/>
<path d="M10.1445 49.4697H0V39.3252H10.1445V49.4697Z" fill="#F1511B"/>
<path d="M21.3451 49.4697H11.2008V39.3252H21.3451V49.4697Z" fill="#80CC28"/>
<path d="M10.1442 60.6741H0V50.5298H10.1442V60.6741Z" fill="#00ADEF"/>
<path d="M21.3451 60.6741H11.2008V50.5298H21.3451V60.6741Z" fill="#FBBC09"/>
</g>
<defs>
<clipPath id="clip0_2181_63702">
<rect width="100" height="100" fill="white"/>
</clipPath>
</defs>
</svg>
