<svg width="100" height="100" viewBox="0 0 100 100" fill="none" xmlns="http://www.w3.org/2000/svg">
<path fill-rule="evenodd" clip-rule="evenodd" d="M31.9919 57.2836L33.2399 54.3836C34.5879 55.3916 36.3839 55.9156 38.1559 55.9156C39.4639 55.9156 40.2919 55.4116 40.2919 54.6476C40.2719 52.5116 32.4559 54.1836 32.3959 48.8276C32.3759 46.1076 34.7919 44.0116 38.2159 44.0116C40.2519 44.0116 42.2839 44.5156 43.7359 45.6636L42.5679 48.6236C41.2399 47.7756 39.5879 47.1716 38.0159 47.1716C36.9479 47.1716 36.2439 47.6756 36.2439 48.3196C36.2639 50.4156 44.1399 49.2676 44.2199 54.3836C44.2199 57.1636 41.8639 59.1196 38.4799 59.1196C35.9999 59.1156 33.7239 58.5316 31.9919 57.2836V57.2836ZM79.9159 53.3356C79.2919 54.4236 78.1239 55.1676 76.7719 55.1676C74.7759 55.1676 73.1679 53.5556 73.1679 51.5636C73.1679 49.5716 74.7799 47.9596 76.7719 47.9596C78.1199 47.9596 79.2919 48.7036 79.9159 49.7916L83.3599 47.8796C82.0719 45.5836 79.5919 44.0116 76.7719 44.0116C72.5999 44.0116 69.2159 47.3956 69.2159 51.5676C69.2159 55.7396 72.5999 59.1236 76.7719 59.1236C79.6119 59.1236 82.0719 57.5716 83.3599 55.2556L79.9159 53.3356ZM45.9519 37.7437H50.2639V58.8356H45.9519V37.7437ZM85.0519 37.7437V58.8356H89.3639V52.5076L94.4799 58.8356H99.9999L93.4919 51.3196L99.5159 44.3076H94.2359L89.3599 50.1276V37.7437H85.0519Z" fill="black"/>
<path d="M63.076 53.3758C62.452 54.4038 61.164 55.1678 59.712 55.1678C57.716 55.1678 56.108 53.5558 56.108 51.5638C56.108 49.5718 57.72 47.9598 59.712 47.9598C61.164 47.9598 62.452 48.7638 63.076 49.8118V53.3758ZM63.076 44.3118V46.0238C62.372 44.8358 60.62 44.0078 58.784 44.0078C54.996 44.0078 52.016 47.3518 52.016 51.5438C52.016 55.7358 54.996 59.1198 58.784 59.1198C60.616 59.1198 62.368 58.2958 63.076 57.1038V58.8158H67.388V44.3118H63.076Z" fill="black"/>
<path fill-rule="evenodd" clip-rule="evenodd" d="M5.34002 53.3558C5.34002 54.8278 4.15202 56.0158 2.68002 56.0158C1.20802 56.0158 0.0200195 54.8238 0.0200195 53.3558C0.0200195 51.8878 1.20802 50.6958 2.68002 50.6958H5.34002V53.3558ZM6.66802 53.3558C6.66802 51.8838 7.85602 50.6958 9.32802 50.6958C10.8 50.6958 11.988 51.8838 11.988 53.3558V60.0038C11.988 61.4758 10.8 62.6638 9.32802 62.6638C7.85602 62.6638 6.66802 61.4758 6.66802 60.0038V53.3558Z" fill="#E01E5A"/>
<path fill-rule="evenodd" clip-rule="evenodd" d="M9.328 42.6799C7.856 42.6799 6.668 41.4919 6.668 40.0199C6.668 38.5479 7.856 37.3599 9.328 37.3599C10.8 37.3599 11.988 38.5479 11.988 40.0199V42.6799H9.328ZM9.328 44.0279C10.8 44.0279 11.988 45.2159 11.988 46.6879C11.988 48.1599 10.8 49.3479 9.328 49.3479H2.66C1.188 49.3479 0 48.1559 0 46.6879C0 45.2199 1.188 44.0279 2.66 44.0279H9.328Z" fill="#36C5F0"/>
<path fill-rule="evenodd" clip-rule="evenodd" d="M19.984 46.6879C19.984 45.2159 21.172 44.0279 22.644 44.0279C24.116 44.0279 25.304 45.2159 25.304 46.6879C25.304 48.1599 24.116 49.3479 22.644 49.3479H19.984V46.6879ZM18.656 46.6879C18.656 48.1599 17.4681 49.3479 15.9961 49.3479C14.5241 49.3479 13.3361 48.1599 13.3361 46.6879V40.0199C13.3361 38.5479 14.5241 37.3599 15.9961 37.3599C17.4681 37.3599 18.656 38.5479 18.656 40.0199V46.6879Z" fill="#2EB67D"/>
<path fill-rule="evenodd" clip-rule="evenodd" d="M15.9961 57.3438C17.468 57.3438 18.656 58.5318 18.656 60.0038C18.656 61.4758 17.468 62.6638 15.9961 62.6638C14.5241 62.6638 13.3361 61.4758 13.3361 60.0038V57.3438H15.9961ZM15.9961 56.0158C14.5241 56.0158 13.3361 54.8278 13.3361 53.3558C13.3361 51.8838 14.5241 50.6958 15.9961 50.6958H22.664C24.136 50.6958 25.324 51.8838 25.324 53.3558C25.324 54.8278 24.136 56.0158 22.664 56.0158H15.9961Z" fill="#ECB22E"/>
</svg>
