<svg width="100" height="100" viewBox="0 0 100 100" fill="none" xmlns="http://www.w3.org/2000/svg">
<path d="M39.8793 41.0195C41.3526 41.0397 42.8461 41.0397 44.3194 41.0195C44.2992 42.3314 44.2992 43.6634 44.3194 44.9753C42.8461 44.9551 41.3526 44.9753 39.8591 44.9551C39.8995 43.6432 39.8591 42.3314 39.8793 41.0195ZM17.5373 46.6706C20.5646 44.9551 24.9644 45.5404 27.0029 48.5072C28.2542 50.2631 28.6175 52.4832 28.5973 54.5821C25.1259 54.6023 21.6545 54.5821 18.1831 54.6023C18.3446 55.672 18.8088 56.8022 19.7977 57.3673C21.2105 58.1948 23.4306 57.9526 24.1369 56.3178C25.5699 56.2775 26.9827 56.2775 28.4156 56.3178C27.9716 57.9526 26.7809 59.3452 25.2873 60.1121C23.6727 61.0001 21.7352 61.1616 19.939 60.8589C18.0418 60.5561 16.286 59.4865 15.2163 57.8921C14.0457 56.1967 13.743 54.0372 14.0053 52.0391C14.2677 49.8393 15.5796 47.7605 17.5373 46.6706ZM19.8986 49.1934C18.9097 49.6576 18.4253 50.7273 18.2033 51.7566H24.1369C24.0159 50.9695 23.7333 50.142 23.1278 49.5971C22.2802 48.7696 20.9279 48.7494 19.8986 49.1934ZM64.0781 45.9037C66.4596 45.4799 69.1035 45.9844 70.9401 47.6394C74.0684 50.4246 74.2097 55.8133 71.3034 58.8003C69.0026 61.202 65.1478 61.646 62.2011 60.2938C59.9205 59.2645 58.3664 56.9435 58.1041 54.4812C58.0032 53.0483 58.0637 51.5749 58.649 50.2429C59.537 47.9623 61.6965 46.3073 64.0781 45.9037ZM64.5826 49.1934C63.3313 49.6374 62.746 50.9897 62.5644 52.2208C62.4231 53.7547 62.4433 55.4903 63.4322 56.7618C64.5019 58.1544 66.8633 58.1141 67.9329 56.7417C68.821 55.6316 68.9622 54.1179 68.8613 52.7455C68.8008 51.5346 68.3769 50.2429 67.3678 49.4962C66.5605 48.9512 65.4908 48.8705 64.5826 49.1934ZM79.9213 46.7312C81.3946 45.5808 83.4936 45.4597 85.1889 46.1459C86.3999 46.6706 87.3081 47.7403 87.7319 48.9714C88.2163 50.2429 88.075 51.6153 88.075 52.9474C88.075 55.4903 88.0549 58.0333 88.0952 60.5561C86.6219 60.5763 85.1486 60.5561 83.6551 60.5763V51.8575C83.6551 51.1108 83.3725 50.3035 82.7469 49.8393C81.7983 49.1934 80.4259 49.3145 79.6186 50.1218C78.9727 50.7677 78.6902 51.696 78.7104 52.5841V60.5763C77.2572 60.5561 75.7839 60.5763 74.3308 60.5561C74.3308 55.7527 74.351 50.9493 74.3308 46.1459C75.7637 46.1661 77.1765 46.1257 78.6095 46.1661C78.5893 46.8321 78.5893 47.4981 78.5691 48.1641C79.0131 47.6797 79.3764 47.1348 79.9213 46.7312ZM0.0390625 46.1862H4.64067C5.56906 49.2741 6.558 52.3621 7.42585 55.4702C8.49552 52.4226 9.30282 49.2741 10.3119 46.1862C11.7853 46.1661 13.2788 46.1862 14.7521 46.1661C13.0568 50.9695 11.4018 55.7729 9.72665 60.5763C8.19279 60.5763 6.65892 60.5561 5.12505 60.5965C3.36917 55.8133 1.81512 50.9493 0.0390625 46.1862ZM29.6064 46.1661H33.8447C33.8245 46.9734 33.8447 47.7806 33.8044 48.5879C34.1676 48.1843 34.43 47.6797 34.8135 47.2963C35.7621 46.2468 37.3161 45.823 38.6885 46.1862C38.6683 47.4577 38.6683 48.7292 38.6885 49.9805C37.5987 49.8594 36.3877 49.8998 35.4593 50.5658C34.4704 51.252 34.0264 52.5235 34.0465 53.6941C34.0264 55.9949 34.0465 58.2755 34.0465 60.5763C32.5732 60.5763 31.0797 60.5561 29.6064 60.5965C29.6266 55.7729 29.6266 50.9695 29.6064 46.1661ZM39.8793 46.1862C41.3728 46.1661 42.8461 46.1862 44.3396 46.1661C44.3194 50.9695 44.3396 55.7729 44.3396 60.5763C42.8663 60.5561 41.3728 60.5763 39.8793 60.5763V46.1862ZM45.5304 46.1661C49.5467 46.1862 53.563 46.1661 57.5591 46.1862C57.5188 47.2963 57.5591 48.3861 57.5389 49.4962C57.3977 49.7787 57.1555 49.9805 56.9738 50.2227C54.9152 52.5033 52.897 54.8445 50.798 57.1049C53.1594 57.1453 55.5207 57.1049 57.8821 57.1251V60.5965C53.7648 60.5763 49.6476 60.5763 45.5304 60.5965V57.2462C47.6899 54.8243 49.8292 52.4226 52.009 50.0209C52.0695 49.8998 52.3319 49.7787 52.1906 49.6173C49.9705 49.6778 47.7505 49.6173 45.5304 49.6576V46.1661Z" fill="black"/>
</svg>
