<svg width="20" height="20" viewBox="0 0 20 20" fill="none" xmlns="http://www.w3.org/2000/svg">
<path d="M3.52595 15.314C3.54543 15.3961 3.58134 15.4735 3.6315 15.5414C3.68166 15.6093 3.74505 15.6664 3.81784 15.7092C3.89063 15.752 3.97133 15.7796 4.05507 15.7904C4.13881 15.8012 4.22388 15.7949 4.30513 15.772C8.03085 14.7433 11.9656 14.7429 15.6915 15.7709C15.7728 15.7938 15.8578 15.8 15.9415 15.7893C16.0252 15.7785 16.1059 15.7509 16.1787 15.7081C16.2514 15.6653 16.3148 15.6083 16.365 15.5404C16.4151 15.4725 16.451 15.3952 16.4706 15.3131L18.4619 6.85085C18.4885 6.73756 18.483 6.61908 18.446 6.50876C18.4089 6.39843 18.3418 6.30064 18.2522 6.22639C18.1626 6.15214 18.054 6.1044 17.9387 6.08852C17.8234 6.07265 17.706 6.08929 17.5996 6.13655L13.6478 7.89293C13.5051 7.95636 13.3438 7.96406 13.1957 7.91453C13.0476 7.86501 12.9234 7.76183 12.8476 7.62533L10.5466 3.48358C10.4925 3.38615 10.4133 3.30496 10.3172 3.24844C10.2212 3.19192 10.1117 3.16211 10.0003 3.16211C9.88882 3.16211 9.77939 3.19192 9.68332 3.24844C9.58726 3.30496 9.50806 3.38615 9.45393 3.48358L7.15296 7.62533C7.07713 7.76183 6.95294 7.865 6.80484 7.91453C6.65675 7.96406 6.49548 7.95635 6.35278 7.89293L2.40032 6.13629C2.29399 6.08903 2.17658 6.07239 2.06131 6.08825C1.94604 6.10411 1.83748 6.15183 1.74786 6.22604C1.65824 6.30025 1.59112 6.39801 1.55405 6.5083C1.51698 6.6186 1.51144 6.73705 1.53804 6.85033L3.52595 15.314Z" stroke="#FF6636" stroke-width="1.5" stroke-linecap="round" stroke-linejoin="round"/>
<path d="M7.5 12.6311C9.16208 12.4563 10.8379 12.4563 12.5 12.6311" stroke="#FF6636" stroke-width="1.5" stroke-linecap="round" stroke-linejoin="round"/>
</svg>
