<svg width="48" height="49" viewBox="0 0 48 49" fill="none" xmlns="http://www.w3.org/2000/svg">
<path d="M15.254 23.4865C12.12 23.4865 10 21.3025 10 18.0665C10 15.1545 12.432 12.7285 15.726 12.7285C19.334 12.7285 22 15.6405 22 20.0885C22 30.1985 14.628 34.2425 10 34.7285V30.2805C13.138 29.7145 16.666 26.5605 16.824 23.0805C16.666 23.1605 16.04 23.4865 15.254 23.4865Z" fill="#FF6636"/>
<path d="M31.254 23.4865C28.118 23.4865 26 21.3025 26 18.0665C26 15.1545 28.432 12.7285 31.726 12.7285C35.334 12.7285 38 15.6405 38 20.0885C38 30.1985 30.628 34.2425 26 34.7285V30.2805C29.138 29.7145 32.666 26.5605 32.824 23.0805C32.666 23.1605 32.04 23.4865 31.254 23.4865Z" fill="#FF6636"/>
</svg>
