<svg width="49" height="49" viewBox="0 0 49 49" fill="none" xmlns="http://www.w3.org/2000/svg">
<path d="M38.0015 42.8018H11C10.6022 42.8018 10.2206 42.6437 9.93934 42.3624C9.65803 42.0811 9.5 41.6996 9.5 41.3018V8.30176C9.5 7.90393 9.65803 7.5224 9.93934 7.2411C10.2206 6.95979 10.6022 6.80176 11 6.80176H29.0015L39.5015 17.3018V41.3018C39.5015 41.4987 39.4627 41.6938 39.3873 41.8758C39.3119 42.0578 39.2014 42.2231 39.0621 42.3624C38.9228 42.5017 38.7575 42.6122 38.5755 42.6876C38.3935 42.763 38.1984 42.8018 38.0015 42.8018Z" stroke="#FF6636" stroke-width="2.5" stroke-linecap="round" stroke-linejoin="round"/>
<path d="M29 6.80176V17.3018H39.5015" stroke="#FF6636" stroke-width="2.5" stroke-linecap="round" stroke-linejoin="round"/>
<path d="M18.5 26.3018H30.5" stroke="#FF6636" stroke-width="2.5" stroke-linecap="round" stroke-linejoin="round"/>
<path d="M18.5 32.3018H30.5" stroke="#FF6636" stroke-width="2.5" stroke-linecap="round" stroke-linejoin="round"/>
</svg>
