<svg width="25" height="24" viewBox="0 0 25 24" fill="none" xmlns="http://www.w3.org/2000/svg">
<path d="M22.5129 14.1004L21.1181 12.2408C21.1202 12.0766 21.1185 11.9013 21.1161 11.7614L22.5123 9.89993C22.5806 9.80883 22.6273 9.70336 22.6488 9.59153C22.6703 9.4797 22.6661 9.36443 22.6364 9.25448C22.4023 8.38688 22.0573 7.55309 21.6098 6.77377C21.5531 6.67498 21.4745 6.59042 21.3802 6.5265C21.2859 6.46259 21.1783 6.421 21.0655 6.4049L18.7698 6.07705C18.6574 5.95813 18.5417 5.84239 18.4226 5.72984L18.0949 3.43516C18.0788 3.32242 18.0372 3.21483 17.9733 3.12055C17.9094 3.02627 17.8249 2.94778 17.7262 2.89102C16.9472 2.44308 16.1136 2.0975 15.2462 1.86284C15.1362 1.83311 15.0209 1.82883 14.909 1.85031C14.7971 1.8718 14.6916 1.91849 14.6004 1.98684L12.7453 3.37836C12.5818 3.37383 12.4179 3.37383 12.2544 3.37836L10.4 1.98754C10.3089 1.91922 10.2034 1.87254 10.0916 1.85104C9.97977 1.82954 9.86451 1.83378 9.75455 1.86344C8.88694 2.09754 8.05316 2.44258 7.27384 2.89002C7.17505 2.94678 7.09048 3.02529 7.02656 3.11961C6.96264 3.21392 6.92104 3.32156 6.90493 3.43435L6.57712 5.72998C6.45824 5.84237 6.3425 5.95812 6.22991 6.07724L3.93523 6.40496C3.82249 6.42106 3.7149 6.46262 3.62062 6.52649C3.52634 6.59036 3.44785 6.67487 3.39109 6.77359C2.94314 7.55263 2.59756 8.3862 2.36291 9.25367C2.33317 9.36365 2.32889 9.47896 2.35038 9.59085C2.37188 9.70274 2.41858 9.80825 2.48696 9.89939L3.88176 11.7589C3.87966 11.9232 3.88135 12.0985 3.88378 12.2383L2.4876 14.0998C2.41927 14.1909 2.37257 14.2964 2.35106 14.4082C2.32955 14.5201 2.33379 14.6353 2.36345 14.7453C2.59757 15.6129 2.94263 16.4467 3.39008 17.226C3.44683 17.3248 3.52535 17.4093 3.61966 17.4733C3.71398 17.5372 3.82162 17.5788 3.93441 17.5949L6.23009 17.9227C6.34247 18.0416 6.4582 18.1574 6.57726 18.2699L6.90502 20.5646C6.92113 20.6773 6.9627 20.7849 7.02658 20.8792C7.09046 20.9735 7.17497 21.052 7.2737 21.1087C8.05271 21.5567 8.88625 21.9023 9.75368 22.1369C9.86367 22.1667 9.97899 22.171 10.0909 22.1495C10.2028 22.128 10.3083 22.0813 10.3994 22.0129L12.2545 20.6214C12.418 20.626 12.582 20.626 12.7455 20.6214L14.5998 22.0122C14.6909 22.0806 14.7964 22.1273 14.9083 22.1488C15.0201 22.1703 15.1354 22.166 15.2453 22.1363C16.1129 21.9022 16.9467 21.5572 17.726 21.1097C17.8248 21.053 17.9094 20.9745 17.9733 20.8802C18.0372 20.7858 18.0788 20.6782 18.095 20.5654L18.4235 18.2643C18.5412 18.1496 18.6639 18.0245 18.7611 17.9238L21.0647 17.5948C21.1774 17.5787 21.285 17.5371 21.3793 17.4733C21.4735 17.4094 21.552 17.3249 21.6088 17.2262C22.0567 16.4471 22.4023 15.6136 22.637 14.7461C22.6667 14.6361 22.671 14.5208 22.6495 14.4089C22.628 14.297 22.5813 14.1915 22.5129 14.1004ZM12.4999 16.1248C11.684 16.1248 10.8865 15.8829 10.2082 15.4296C9.52982 14.9764 9.0011 14.3322 8.68889 13.5784C8.37668 12.8247 8.29499 11.9953 8.45416 11.1951C8.61332 10.3949 9.00619 9.65991 9.58308 9.08302C10.16 8.50613 10.895 8.11326 11.6951 7.9541C12.4953 7.79493 13.3247 7.87662 14.0785 8.18883C14.8322 8.50105 15.4764 9.02976 15.9297 9.70811C16.383 10.3865 16.6249 11.184 16.6249 11.9998C16.6237 13.0935 16.1887 14.142 15.4153 14.9153C14.642 15.6886 13.5935 16.1236 12.4999 16.1248Z" fill="white"/>
</svg>
