<svg width="408" height="148" viewBox="0 0 408 148" fill="none" xmlns="http://www.w3.org/2000/svg">
<path opacity="0.5" d="M5.36667 48.3209L2 43.7382V148H406V23.5741L402.633 25.0864C399.267 26.6446 392.533 29.6692 385.8 26.3238C379.067 22.9784 372.333 13.1713 365.6 16.1043C358.867 18.9914 352.133 34.5727 345.4 37.414C338.667 40.2095 331.933 30.3108 325.2 23.8949C318.467 17.4791 311.733 14.5461 305 17.4791C298.267 20.3662 291.533 29.0734 284.8 37.2307C278.067 45.4338 271.333 53.0411 264.6 48.4126C257.867 43.7382 251.133 26.782 244.4 19.7705C237.667 12.713 230.933 15.646 224.2 18.8997C217.467 22.1993 210.733 25.8655 204 34.5727C197.267 43.2799 190.533 57.0281 183.8 59.3195C177.067 61.6108 170.333 52.4454 163.6 46.1212C156.867 39.7512 150.133 36.2683 143.4 36.0392C136.667 35.81 129.933 38.8346 123.2 40.6219C116.467 42.3633 109.733 42.8216 103 48.0918C96.2667 53.3619 89.5333 63.4439 82.8 55.5158C76.0667 47.5418 69.3333 21.6035 62.6 9.73425C55.8667 -2.08921 49.1333 0.20216 42.4 12.8047C35.6667 25.4072 28.9333 48.3209 22.2 55.195C15.4667 62.0691 8.73333 52.9036 5.36667 48.3209Z" fill="#FFF2E6"/>
<path d="M2 43.7382L5.36667 48.3209C8.73333 52.9036 15.4667 62.0691 22.2 55.195C28.9333 48.3209 35.6667 25.4072 42.4 12.8047C49.1333 0.20216 55.8667 -2.08921 62.6 9.73425C69.3333 21.6035 76.0667 47.5418 82.8 55.5158C89.5333 63.4439 96.2667 53.3619 103 48.0918C109.733 42.8216 116.467 42.3633 123.2 40.6219C129.933 38.8346 136.667 35.81 143.4 36.0392C150.133 36.2683 156.867 39.7512 163.6 46.1212C170.333 52.4454 177.067 61.6108 183.8 59.3195C190.533 57.0281 197.267 43.2799 204 34.5727C210.733 25.8655 217.467 22.1993 224.2 18.8997C230.933 15.646 237.667 12.713 244.4 19.7705C251.133 26.782 257.867 43.7382 264.6 48.4126C271.333 53.0411 278.067 45.4338 284.8 37.2307C291.533 29.0734 298.267 20.3662 305 17.4791C311.733 14.5461 318.467 17.4791 325.2 23.8949C331.933 30.3108 338.667 40.2095 345.4 37.414C352.133 34.5727 358.867 18.9914 365.6 16.1043C372.333 13.1713 379.067 22.9784 385.8 26.3238C392.533 29.6692 399.267 26.6446 402.633 25.0864L406 23.5741" stroke="#FD8E1F" stroke-width="3" stroke-linecap="round"/>
</svg>
