<svg width="19" height="18" viewBox="0 0 19 18" fill="none" xmlns="http://www.w3.org/2000/svg">
<path d="M18.0406 5.29205C17.9984 4.33564 17.8438 3.67812 17.6222 3.10836C17.3936 2.50359 17.042 1.96213 16.5813 1.51201C16.1312 1.05489 15.5862 0.699691 14.9884 0.474702C14.4154 0.253147 13.7613 0.0984842 12.8049 0.0563159C11.8413 0.0105764 11.5354 0 9.09159 0C6.64775 0 6.34186 0.0105764 5.38188 0.0527447C4.42548 0.0949129 3.76795 0.249713 3.19834 0.471131C2.59343 0.699691 2.05197 1.05132 1.60186 1.51201C1.14474 1.96213 0.789671 2.50716 0.564545 3.10493C0.34299 3.67812 0.188328 4.33207 0.14616 5.28848C0.10042 6.25203 0.0898438 6.55792 0.0898438 9.00176C0.0898438 11.4456 0.10042 11.7515 0.142588 12.7115C0.184757 13.6679 0.339556 14.3254 0.561111 14.8952C0.789671 15.4999 1.14474 16.0414 1.60186 16.4915C2.05197 16.9486 2.597 17.3038 3.19477 17.5288C3.76795 17.7504 4.42191 17.905 5.37845 17.9472C6.33829 17.9895 6.64432 17.9999 9.08815 17.9999C11.532 17.9999 11.8379 17.9895 12.7979 17.9472C13.7543 17.905 14.4118 17.7504 14.9814 17.5288C16.1911 17.0611 17.1475 16.1047 17.6152 14.8952C17.8366 14.322 17.9914 13.6679 18.0336 12.7115C18.0757 11.7515 18.0863 11.4456 18.0863 9.00176C18.0863 6.55792 18.0828 6.25203 18.0406 5.29205ZM16.4197 12.6411C16.3809 13.5202 16.2333 13.9949 16.1102 14.3114C15.8077 15.0956 15.1854 15.7179 14.4012 16.0204C14.0847 16.1434 13.6066 16.2911 12.731 16.3297C11.7816 16.372 11.4968 16.3824 9.09516 16.3824C6.69349 16.3824 6.40518 16.372 5.45922 16.3297C4.58014 16.2911 4.10544 16.1434 3.78897 16.0204C3.39874 15.8761 3.04354 15.6476 2.75523 15.3487C2.45635 15.0568 2.22779 14.7052 2.08356 14.315C1.96049 13.9985 1.81283 13.5202 1.77424 12.6447C1.73193 11.6953 1.72149 11.4104 1.72149 9.00876C1.72149 6.60709 1.73193 6.31878 1.77424 5.37295C1.81283 4.49387 1.96049 4.01917 2.08356 3.7027C2.22779 3.31234 2.45635 2.95727 2.7588 2.66883C3.05055 2.36994 3.40218 2.14138 3.79254 1.99729C4.10901 1.87422 4.58728 1.72656 5.46279 1.68783C6.41219 1.64566 6.69706 1.63508 9.09859 1.63508C11.5038 1.63508 11.7886 1.64566 12.7345 1.68783C13.6136 1.72656 14.0883 1.87422 14.4048 1.99729C14.795 2.14138 15.1502 2.36994 15.4385 2.66883C15.7374 2.96071 15.966 3.31234 16.1102 3.7027C16.2333 4.01917 16.3809 4.49731 16.4197 5.37295C16.4618 6.32236 16.4724 6.60709 16.4724 9.00876C16.4724 11.4104 16.4618 11.6917 16.4197 12.6411Z" fill="white"/>
<path d="M9.09172 4.37744C6.53896 4.37744 4.46777 6.44849 4.46777 9.00139C4.46777 11.5543 6.53896 13.6253 9.09172 13.6253C11.6446 13.6253 13.7157 11.5543 13.7157 9.00139C13.7157 6.44849 11.6446 4.37744 9.09172 4.37744ZM9.09172 12.0008C7.43562 12.0008 6.09228 10.6576 6.09228 9.00139C6.09228 7.34515 7.43562 6.00195 9.09172 6.00195C10.748 6.00195 12.0912 7.34515 12.0912 9.00139C12.0912 10.6576 10.748 12.0008 9.09172 12.0008Z" fill="white"/>
<path d="M14.9775 4.19521C14.9775 4.79133 14.4941 5.27469 13.8978 5.27469C13.3017 5.27469 12.8184 4.79133 12.8184 4.19521C12.8184 3.59894 13.3017 3.11572 13.8978 3.11572C14.4941 3.11572 14.9775 3.59894 14.9775 4.19521Z" fill="white"/>
</svg>
