<svg width="25" height="24" viewBox="0 0 25 24" fill="none" xmlns="http://www.w3.org/2000/svg">
<path d="M18.2028 11.36L6.89109 4.44732C6.7774 4.37784 6.64725 4.3399 6.51403 4.33741C6.38082 4.33492 6.24934 4.36796 6.13313 4.43313C6.01692 4.49831 5.92017 4.59327 5.85283 4.70824C5.78549 4.82321 5.75 4.95404 5.75 5.08728V18.9127C5.75 19.0459 5.78549 19.1768 5.85283 19.2917C5.92017 19.4067 6.01692 19.5017 6.13313 19.5668C6.24934 19.632 6.38082 19.6651 6.51403 19.6626C6.64725 19.6601 6.7774 19.6221 6.89109 19.5527L18.2028 12.6399C18.3124 12.573 18.403 12.4789 18.4658 12.3669C18.5287 12.2548 18.5617 12.1285 18.5617 12C18.5617 11.8715 18.5287 11.7452 18.4658 11.6331C18.403 11.5211 18.3124 11.427 18.2028 11.36Z" fill="white"/>
<path d="M19.25 3.75V20.25" stroke="white" stroke-width="1.5" stroke-linecap="round" stroke-linejoin="round"/>
</svg>
