<svg width="19" height="18" viewBox="0 0 19 18" fill="none" xmlns="http://www.w3.org/2000/svg">
<path d="M18.0819 18.0002V17.9994H18.0864V11.3979C18.0864 8.16841 17.3912 5.68066 13.6156 5.68066C11.8006 5.68066 10.5826 6.67666 10.0854 7.62091H10.0329V5.98216H6.45312V17.9994H10.1806V12.0489C10.1806 10.4822 10.4776 8.96716 12.4179 8.96716C14.3296 8.96716 14.3581 10.7552 14.3581 12.1494V18.0002H18.0819Z" fill="white"/>
<path d="M0.382812 5.98291H4.11481V18.0002H0.382812V5.98291Z" fill="white"/>
<path d="M2.24744 0C1.05419 0 0.0859375 0.96825 0.0859375 2.1615C0.0859375 3.35475 1.05419 4.34325 2.24744 4.34325C3.44069 4.34325 4.40894 3.35475 4.40894 2.1615C4.40819 0.96825 3.43994 0 2.24744 0V0Z" fill="white"/>
</svg>
