<svg width="20" height="20" viewBox="0 0 20 20" fill="none" xmlns="http://www.w3.org/2000/svg">
<path d="M19.995 19.9997V19.9989H20V12.664C20 9.07566 19.2275 6.31152 15.0325 6.31152C13.0158 6.31152 11.6625 7.41818 11.11 8.46734H11.0517V6.64652H7.07422V19.9989H11.2159V13.3873C11.2159 11.6465 11.5459 9.96316 13.7017 9.96316C15.8258 9.96316 15.8575 11.9498 15.8575 13.499V19.9997H19.995Z" fill="#FF6636"/>
<path d="M0.330078 6.64746H4.47671V19.9998H0.330078V6.64746Z" fill="#FF6636"/>
<path d="M2.40164 0C1.07582 0 0 1.07582 0 2.40164C0 3.72747 1.07582 4.82579 2.40164 4.82579C3.72747 4.82579 4.80329 3.72747 4.80329 2.40164C4.80246 1.07582 3.72663 0 2.40164 0V0Z" fill="#FF6636"/>
</svg>
