<svg width="25" height="24" viewBox="0 0 25 24" fill="none" xmlns="http://www.w3.org/2000/svg">
<path d="M21.0811 11.3455L5.24536 2.47746C5.11214 2.40285 4.95932 2.37069 4.80732 2.38526C4.65533 2.39983 4.51141 2.46045 4.39479 2.55901C4.27817 2.65757 4.19441 2.78938 4.15471 2.93681C4.115 3.08425 4.12125 3.24029 4.1726 3.38409L7.15957 11.7476C7.21783 11.9107 7.21783 12.089 7.15957 12.2521L4.1726 20.6156C4.12124 20.7594 4.115 20.9155 4.15471 21.0629C4.19441 21.2104 4.27817 21.3422 4.39479 21.4407C4.51141 21.5393 4.65533 21.5999 4.80732 21.6145C4.95932 21.629 5.11214 21.5969 5.24536 21.5223L21.0811 12.6542C21.1975 12.5891 21.2943 12.4941 21.3617 12.3791C21.4291 12.2641 21.4647 12.1332 21.4647 11.9999C21.4647 11.8665 21.4291 11.7356 21.3617 11.6206C21.2943 11.5056 21.1974 11.4106 21.0811 11.3455V11.3455Z" stroke="white" stroke-width="1.5" stroke-linecap="round" stroke-linejoin="round"/>
<path d="M7.25 12H13.25" stroke="white" stroke-width="1.5" stroke-linecap="round" stroke-linejoin="round"/>
</svg>
