<svg width="25" height="24" viewBox="0 0 25 24" fill="none" xmlns="http://www.w3.org/2000/svg">
<path d="M19.25 3.75H15.875C15.4608 3.75 15.125 4.08579 15.125 4.5V19.5C15.125 19.9142 15.4608 20.25 15.875 20.25H19.25C19.6642 20.25 20 19.9142 20 19.5V4.5C20 4.08579 19.6642 3.75 19.25 3.75Z" fill="white"/>
<path d="M9.125 3.75H5.75C5.33579 3.75 5 4.08579 5 4.5V19.5C5 19.9142 5.33579 20.25 5.75 20.25H9.125C9.53921 20.25 9.875 19.9142 9.875 19.5V4.5C9.875 4.08579 9.53921 3.75 9.125 3.75Z" fill="white"/>
</svg>
