<svg width="40" height="40" viewBox="0 0 40 40" fill="none" xmlns="http://www.w3.org/2000/svg">
<path opacity="0.2" d="M20 5C17.0333 5 14.1332 5.87973 11.6665 7.52796C9.19972 9.17618 7.27713 11.5189 6.14181 14.2597C5.0065 17.0006 4.70945 20.0166 5.28823 22.9264C5.86701 25.8361 7.29562 28.5088 9.39341 30.6066C11.4912 32.7044 14.1639 34.133 17.0737 34.7118C19.9834 35.2906 22.9994 34.9935 25.7403 33.8582C28.4812 32.7229 30.8238 30.8003 32.4721 28.3336C34.1203 25.8668 35 22.9667 35 20C35 18.0302 34.612 16.0796 33.8582 14.2597C33.1044 12.4399 31.9995 10.7863 30.6066 9.39339C29.2137 8.00051 27.5602 6.89562 25.7403 6.1418C23.9204 5.38798 21.9698 4.99999 20 5ZM17.5 25V15L25 20L17.5 25Z" fill="#FF6636"/>
<path d="M20 35C28.2843 35 35 28.2843 35 20C35 11.7157 28.2843 5 20 5C11.7157 5 5 11.7157 5 20C5 28.2843 11.7157 35 20 35Z" stroke="#FF6636" stroke-width="2" stroke-miterlimit="10"/>
<path d="M25 20L17.5 15V25L25 20Z" stroke="#FF6636" stroke-width="2" stroke-linecap="round" stroke-linejoin="round"/>
</svg>
