<svg width="25" height="24" viewBox="0 0 25 24" fill="none" xmlns="http://www.w3.org/2000/svg">
<path d="M9.19531 20.25C9.19531 20.6642 8.85953 21 8.44531 21C8.0311 21 7.69531 20.6642 7.69531 20.25C7.69531 19.8358 8.0311 19.5 8.44531 19.5C8.85953 19.5 9.19531 19.8358 9.19531 20.25Z" fill="white" stroke="white" stroke-width="1.5"/>
<path d="M18.1953 21.75C19.0237 21.75 19.6953 21.0784 19.6953 20.25C19.6953 19.4216 19.0237 18.75 18.1953 18.75C17.3669 18.75 16.6953 19.4216 16.6953 20.25C16.6953 21.0784 17.3669 21.75 18.1953 21.75Z" fill="white"/>
<path d="M4.9096 6.75H21.731L19.2561 15.4121C19.1666 15.7255 18.9774 16.0012 18.7172 16.1975C18.4569 16.3938 18.1398 16.5 17.8139 16.5H8.82676C8.5008 16.5 8.18371 16.3938 7.92347 16.1975C7.66324 16.0012 7.47403 15.7255 7.38448 15.4121L3.99359 3.54396C3.94881 3.38725 3.85421 3.24939 3.72409 3.15124C3.59397 3.05309 3.43543 3 3.27244 3H1.69531" stroke="white" stroke-width="1.5" stroke-linecap="round" stroke-linejoin="round"/>
</svg>
