<svg width="19" height="18" viewBox="0 0 19 18" fill="none" xmlns="http://www.w3.org/2000/svg">
<g clip-path="url(#clip0_4504_2082)">
<path d="M18.0859 3.73137C17.4166 4.025 16.7033 4.21962 15.9597 4.31412C16.7247 3.85737 17.3086 3.13962 17.5831 2.2745C16.8698 2.69975 16.0823 3.00013 15.2431 3.16775C14.5658 2.44663 13.6006 2 12.5476 2C10.5046 2 8.85981 3.65825 8.85981 5.69113C8.85981 5.98363 8.88456 6.26487 8.94531 6.53262C5.87744 6.383 3.16281 4.91263 1.33919 2.67275C1.02081 3.22513 0.834063 3.85738 0.834063 4.538C0.834063 5.816 1.49219 6.94887 2.47319 7.60475C1.88031 7.5935 1.29869 7.42138 0.805937 7.15025C0.805937 7.1615 0.805937 7.17613 0.805937 7.19075C0.805937 8.984 2.08506 10.4735 3.76244 10.8166C3.46206 10.8988 3.13469 10.9381 2.79494 10.9381C2.55869 10.9381 2.32019 10.9246 2.09631 10.8751C2.57444 12.3365 3.93119 13.4109 5.54444 13.4457C4.28894 14.4279 2.69481 15.0196 0.969063 15.0196C0.666438 15.0196 0.376187 15.0061 0.0859375 14.969C1.72056 16.0231 3.65781 16.625 5.74694 16.625C12.5374 16.625 16.2499 11 16.2499 6.12425C16.2499 5.96112 16.2443 5.80363 16.2364 5.64725C16.9688 5.1275 17.5842 4.47837 18.0859 3.73137Z" fill="white"/>
</g>
<defs>
<clipPath id="clip0_4504_2082">
<rect width="18" height="18" fill="white" transform="translate(0.0859375)"/>
</clipPath>
</defs>
</svg>
