<svg width="19" height="18" viewBox="0 0 19 18" fill="none" xmlns="http://www.w3.org/2000/svg">
<g clip-path="url(#clip0_4654_11619)">
<path d="M18.4961 3.73137C17.8267 4.025 17.1135 4.21962 16.3698 4.31412C17.1348 3.85737 17.7187 3.13962 17.9932 2.2745C17.28 2.69975 16.4925 3.00013 15.6532 3.16775C14.976 2.44663 14.0107 2 12.9577 2C10.9147 2 9.26997 3.65825 9.26997 5.69113C9.26997 5.98363 9.29472 6.26487 9.35547 6.53262C6.28759 6.383 3.57297 4.91263 1.74934 2.67275C1.43097 3.22513 1.24422 3.85738 1.24422 4.538C1.24422 5.816 1.90234 6.94887 2.88334 7.60475C2.29047 7.5935 1.70884 7.42138 1.21609 7.15025C1.21609 7.1615 1.21609 7.17613 1.21609 7.19075C1.21609 8.984 2.49522 10.4735 4.17259 10.8166C3.87222 10.8988 3.54484 10.9381 3.20509 10.9381C2.96884 10.9381 2.73034 10.9246 2.50647 10.8751C2.98459 12.3365 4.34134 13.4109 5.95459 13.4457C4.69909 14.4279 3.10497 15.0196 1.37922 15.0196C1.07659 15.0196 0.786344 15.0061 0.496094 14.969C2.13072 16.0231 4.06797 16.625 6.15709 16.625C12.9476 16.625 16.6601 11 16.6601 6.12425C16.6601 5.96112 16.6545 5.80363 16.6466 5.64725C17.379 5.1275 17.9943 4.47837 18.4961 3.73137Z" fill="white"/>
</g>
<defs>
<clipPath id="clip0_4654_11619">
<rect width="18" height="18" fill="white" transform="translate(0.496094)"/>
</clipPath>
</defs>
</svg>
