<svg width="24" height="24" viewBox="0 0 24 24" fill="none" xmlns="http://www.w3.org/2000/svg">
<path d="M8.25 15C10.9424 15 13.125 12.8174 13.125 10.125C13.125 7.43261 10.9424 5.25 8.25 5.25C5.55761 5.25 3.375 7.43261 3.375 10.125C3.375 12.8174 5.55761 15 8.25 15Z" stroke="#564FFD" stroke-width="1.5" stroke-miterlimit="10"/>
<path d="M14.5703 5.43173C15.2408 5.24281 15.9441 5.19978 16.6326 5.30552C17.3212 5.41126 17.9791 5.66333 18.562 6.04475C19.1449 6.42616 19.6393 6.92807 20.012 7.51666C20.3846 8.10525 20.6268 8.76685 20.7221 9.45692C20.8175 10.147 20.764 10.8495 20.565 11.5171C20.366 12.1847 20.0263 12.8019 19.5687 13.3272C19.1111 13.8524 18.5463 14.2735 17.9123 14.5621C17.2782 14.8507 16.5897 15.0001 15.8931 15.0001" stroke="#564FFD" stroke-width="1.5" stroke-linecap="round" stroke-linejoin="round"/>
<path d="M1.5 18.5059C2.26138 17.4229 3.27215 16.539 4.44698 15.9288C5.62182 15.3186 6.92623 15.0001 8.25008 15C9.57393 14.9999 10.8784 15.3184 12.0532 15.9285C13.2281 16.5386 14.239 17.4225 15.0004 18.5054" stroke="#564FFD" stroke-width="1.5" stroke-linecap="round" stroke-linejoin="round"/>
<path d="M15.8926 15C17.2166 14.999 18.5213 15.3171 19.6962 15.9273C20.8712 16.5375 21.8819 17.4218 22.6426 18.5054" stroke="#564FFD" stroke-width="1.5" stroke-linecap="round" stroke-linejoin="round"/>
</svg>
