<svg width="32" height="32" viewBox="0 0 32 32" fill="none" xmlns="http://www.w3.org/2000/svg">
<path opacity="0.2" d="M11 20C14.5899 20 17.5 17.0899 17.5 13.5C17.5 9.91015 14.5899 7 11 7C7.41015 7 4.5 9.91015 4.5 13.5C4.5 17.0899 7.41015 20 11 20Z" fill="#FD8E1F"/>
<path d="M11 20C14.5899 20 17.5 17.0899 17.5 13.5C17.5 9.91015 14.5899 7 11 7C7.41015 7 4.5 9.91015 4.5 13.5C4.5 17.0899 7.41015 20 11 20Z" stroke="#FD8E1F" stroke-width="2" stroke-miterlimit="10"/>
<path d="M19.4268 7.24166C20.3208 6.98977 21.2584 6.93239 22.1765 7.07338C23.0945 7.21437 23.9717 7.55046 24.749 8.05901C25.5262 8.56756 26.1855 9.23677 26.6823 10.0216C27.1791 10.8063 27.502 11.6885 27.6292 12.6086C27.7564 13.5287 27.685 14.4653 27.4197 15.3555C27.1544 16.2456 26.7014 17.0686 26.0913 17.7689C25.4812 18.4693 24.7281 19.0307 23.8827 19.4155C23.0373 19.8003 22.1193 19.9994 21.1905 19.9995" stroke="#FD8E1F" stroke-width="2" stroke-linecap="round" stroke-linejoin="round"/>
<path d="M1.99951 24.6746C3.01468 23.2306 4.36238 22.052 5.92882 21.2384C7.49527 20.4248 9.23448 20.0001 10.9996 20C12.7648 19.9999 14.504 20.4246 16.0705 21.238C17.637 22.0515 18.9848 23.23 20.0001 24.6739" stroke="#FD8E1F" stroke-width="2" stroke-linecap="round" stroke-linejoin="round"/>
<path d="M21.1899 20C22.9552 19.9987 24.6949 20.4228 26.2615 21.2364C27.8281 22.05 29.1757 23.2291 30.19 24.6739" stroke="#FD8E1F" stroke-width="2" stroke-linecap="round" stroke-linejoin="round"/>
</svg>
