<svg width="25" height="24" viewBox="0 0 25 24" fill="none" xmlns="http://www.w3.org/2000/svg">
<path d="M21.5535 6.69738C21.4128 6.55689 21.222 6.47802 21.0232 6.47809C20.8244 6.47816 20.6337 6.55718 20.4931 6.69777C20.3525 6.83837 20.2735 7.02903 20.2734 7.22786C20.2734 7.42669 20.3522 7.61742 20.4927 7.75812C21.0499 8.31525 21.4919 8.97669 21.7934 9.70464C22.095 10.4326 22.2502 11.2128 22.2502 12.0008C22.2502 12.7887 22.095 13.5689 21.7934 14.2969C21.4919 15.0248 21.0499 15.6863 20.4927 16.2434C20.3525 16.3842 20.2738 16.5748 20.274 16.7735C20.2742 16.9722 20.3532 17.1627 20.4937 17.3032C20.6342 17.4437 20.8247 17.5227 21.0234 17.5229C21.2221 17.523 21.4127 17.4444 21.5535 17.3041C22.96 15.8976 23.7502 13.9899 23.7502 12.0008C23.7502 10.0116 22.96 8.10393 21.5535 6.69738V6.69738Z" fill="white"/>
<path d="M15.0795 2.32724C14.9534 2.26551 14.8125 2.24044 14.6728 2.2549C14.5332 2.26935 14.4004 2.32275 14.2896 2.409L7.74264 7.50098H3.5C3.10231 7.50143 2.72105 7.65961 2.43984 7.94082C2.15864 8.22202 2.00045 8.60329 2 9.00098V15.001C2.00045 15.3987 2.15864 15.7799 2.43984 16.0611C2.72105 16.3423 3.10231 16.5005 3.5 16.501H7.74265L14.2896 21.593C14.4004 21.6792 14.5332 21.7325 14.6728 21.747C14.8125 21.7614 14.9534 21.7364 15.0795 21.6747C15.2057 21.613 15.3119 21.5172 15.3863 21.3981C15.4606 21.279 15.5 21.1414 15.5 21.001V3.00098C15.5 2.86057 15.4606 2.72299 15.3862 2.60388C15.3119 2.48477 15.2056 2.38892 15.0795 2.32724ZM3.5 9.00098H7.24725V15.001H3.5V9.00098Z" fill="white"/>
<path d="M17.8407 9.34953C17.7711 9.41918 17.7159 9.50186 17.6782 9.59286C17.6405 9.68385 17.6211 9.78138 17.6211 9.87987C17.6211 9.97836 17.6405 10.0759 17.6782 10.1669C17.7159 10.2579 17.7712 10.3405 17.8408 10.4102C18.0498 10.6191 18.2155 10.8671 18.3286 11.1401C18.4416 11.4131 18.4998 11.7056 18.4998 12.0011C18.4998 12.2965 18.4416 12.5891 18.3286 12.8621C18.2155 13.1351 18.0498 13.3831 17.8408 13.592C17.7002 13.7326 17.6211 13.9234 17.6211 14.1223C17.6211 14.3212 17.7001 14.512 17.8407 14.6526C17.9814 14.7933 18.1721 14.8723 18.371 14.8723C18.5699 14.8724 18.7607 14.7934 18.9014 14.6527C19.2496 14.3045 19.5259 13.8911 19.7143 13.4362C19.9028 12.9812 19.9998 12.4936 19.9998 12.0011C19.9998 11.5086 19.9028 11.021 19.7143 10.566C19.5259 10.111 19.2496 9.69764 18.9014 9.34944C18.8317 9.27979 18.7491 9.22454 18.6581 9.18684C18.5671 9.14915 18.4695 9.12975 18.371 9.12976C18.2725 9.12977 18.175 9.14918 18.084 9.18689C17.993 9.2246 17.9104 9.27987 17.8407 9.34953Z" fill="white"/>
</svg>
