<svg width="20" height="20" viewBox="0 0 20 20" fill="none" xmlns="http://www.w3.org/2000/svg">
<g clip-path="url(#clip0_4561_8727)">
<path d="M13.7493 0C12.6831 0.0737496 11.4368 0.756246 10.7106 1.64499C10.0481 2.45124 9.5031 3.64873 9.7156 4.81247C10.8806 4.84872 12.0843 4.14998 12.7818 3.24623C13.4343 2.40499 13.9281 1.21499 13.7493 0Z" fill="black"/>
<path d="M17.9629 6.71038C16.9392 5.42664 15.5004 4.68164 14.1417 4.68164C12.348 4.68164 11.5892 5.54039 10.343 5.54039C9.05798 5.54039 8.08174 4.68414 6.5305 4.68414C5.00676 4.68414 3.38427 5.61539 2.35552 7.20788C0.909281 9.45036 1.15678 13.6666 3.50052 17.2578C4.33926 18.5428 5.45925 19.9878 6.92425 20.0003C8.22799 20.0128 8.59549 19.1641 10.3617 19.1553C12.128 19.1453 12.463 20.0116 13.7642 19.9978C15.2304 19.9866 16.4117 18.3853 17.2504 17.1003C17.8517 16.1791 18.0754 15.7153 18.5417 14.6753C15.1504 13.3841 14.6067 8.56162 17.9629 6.71038Z" fill="black"/>
</g>
<defs>
<clipPath id="clip0_4561_8727">
<rect width="20" height="20" fill="white"/>
</clipPath>
</defs>
</svg>
