<svg width="25" height="24" viewBox="0 0 25 24" fill="none" xmlns="http://www.w3.org/2000/svg">
<g clip-path="url(#clip0_2478_70313)">
<path d="M20.75 3.75H4.25C3.85231 3.75045 3.47105 3.90864 3.18984 4.18984C2.90864 4.47105 2.75045 4.85231 2.75 5.25V18.75C2.75045 19.1477 2.90864 19.529 3.18984 19.8102C3.47105 20.0914 3.85231 20.2495 4.25 20.25H20.75C21.1477 20.2495 21.529 20.0914 21.8102 19.8102C22.0914 19.529 22.2495 19.1477 22.25 18.75V5.25C22.2495 4.85231 22.0914 4.47105 21.8102 4.18984C21.529 3.90864 21.1477 3.75045 20.75 3.75ZM9.5 13.875C9.74957 13.8758 9.99675 13.8264 10.2268 13.7297C10.4569 13.633 10.6652 13.491 10.8393 13.3122C10.9785 13.1702 11.1685 13.0892 11.3674 13.0872C11.5663 13.0852 11.7578 13.1622 11.8999 13.3014C12.0419 13.4406 12.1229 13.6306 12.1249 13.8295C12.1269 14.0283 12.0499 14.2199 11.9107 14.362C11.4415 14.8409 10.8403 15.1692 10.1837 15.305C9.52716 15.4408 8.84504 15.3781 8.22432 15.1247C7.6036 14.8713 7.07242 14.4387 6.69851 13.8822C6.32461 13.3257 6.12492 12.6705 6.12492 12C6.12492 11.3295 6.32461 10.6743 6.69851 10.1178C7.07242 9.56128 7.6036 9.12875 8.22432 8.87535C8.84504 8.62195 9.52716 8.55916 10.1837 8.69499C10.8403 8.83083 11.4415 9.15913 11.9107 9.63803C12.0499 9.7801 12.1269 9.97165 12.1249 10.1705C12.1229 10.3694 12.0419 10.5594 11.8999 10.6986C11.7578 10.8378 11.5663 10.9148 11.3674 10.9128C11.1685 10.9108 10.9785 10.8298 10.8393 10.6878C10.623 10.4669 10.3554 10.303 10.0603 10.2107C9.76529 10.1183 9.45199 10.1003 9.14832 10.1583C8.84465 10.2162 8.56003 10.3484 8.3198 10.543C8.07957 10.7376 7.89119 10.9886 7.77142 11.2736C7.65165 11.5586 7.60421 11.8688 7.63334 12.1766C7.66246 12.4844 7.76723 12.7802 7.93833 13.0377C8.10944 13.2952 8.34155 13.5064 8.61402 13.6525C8.88648 13.7986 9.19084 13.875 9.5 13.875ZM16.25 13.875C16.4996 13.8758 16.7468 13.8264 16.9768 13.7297C17.2069 13.633 17.4152 13.491 17.5893 13.3122C17.7285 13.1702 17.9185 13.0892 18.1174 13.0872C18.3163 13.0852 18.5078 13.1622 18.6499 13.3014C18.7919 13.4406 18.8729 13.6306 18.8749 13.8295C18.8769 14.0283 18.7999 14.2199 18.6607 14.362C18.1915 14.8409 17.5903 15.1692 16.9337 15.305C16.2772 15.4408 15.595 15.3781 14.9743 15.1247C14.3536 14.8713 13.8224 14.4387 13.4485 13.8822C13.0746 13.3257 12.8749 12.6705 12.8749 12C12.8749 11.3295 13.0746 10.6743 13.4485 10.1178C13.8224 9.56128 14.3536 9.12875 14.9743 8.87535C15.595 8.62195 16.2772 8.55916 16.9337 8.69499C17.5903 8.83083 18.1915 9.15913 18.6607 9.63803C18.7999 9.7801 18.8769 9.97165 18.8749 10.1705C18.8729 10.3694 18.7919 10.5594 18.6499 10.6986C18.5078 10.8378 18.3163 10.9148 18.1174 10.9128C17.9185 10.9108 17.7285 10.8298 17.5893 10.6878C17.373 10.4669 17.1054 10.303 16.8103 10.2107C16.5153 10.1183 16.202 10.1003 15.8983 10.1583C15.5947 10.2162 15.31 10.3484 15.0698 10.543C14.8296 10.7376 14.6412 10.9886 14.5214 11.2736C14.4016 11.5586 14.3542 11.8688 14.3833 12.1766C14.4125 12.4844 14.5172 12.7802 14.6883 13.0377C14.8594 13.2952 15.0916 13.5064 15.364 13.6525C15.6365 13.7986 15.9408 13.875 16.25 13.875Z" fill="white"/>
</g>
<defs>
<clipPath id="clip0_2478_70313">
<rect width="24" height="24" fill="white" transform="translate(0.5)"/>
</clipPath>
</defs>
</svg>
