<svg width="48" height="49" viewBox="0 0 48 49" fill="none" xmlns="http://www.w3.org/2000/svg">
<path d="M32.746 25.9705C35.88 25.9705 38 28.1545 38 31.3905C38 34.3025 35.568 36.7285 32.274 36.7285C28.666 36.7285 26 33.8165 26 29.3685C26 19.2585 33.372 15.2145 38 14.7285V19.1765C34.862 19.7425 31.334 22.8965 31.176 26.3765C31.334 26.2965 31.96 25.9705 32.746 25.9705Z" fill="#FF6636"/>
<path d="M16.746 25.9705C19.882 25.9705 22 28.1545 22 31.3905C22 34.3025 19.568 36.7285 16.274 36.7285C12.666 36.7285 10 33.8165 10 29.3685C10 19.2585 17.372 15.2145 22 14.7285V19.1765C18.862 19.7425 15.334 22.8965 15.176 26.3765C15.334 26.2965 15.96 25.9705 16.746 25.9705Z" fill="#FF6636"/>
</svg>
