<svg width="40" height="40" viewBox="0 0 40 40" fill="none" xmlns="http://www.w3.org/2000/svg">
<path opacity="0.2" d="M20.3518 34.9964C23.0943 34.9327 25.7668 34.1183 28.0787 32.6416C30.3906 31.165 32.2533 29.0827 33.4643 26.6213L33.464 26.6211L24.9818 21.4042C24.8331 21.3127 24.6669 21.2534 24.4939 21.2301L20.9285 20.7495C20.6608 20.7134 20.3886 20.765 20.1526 20.8966C19.9167 21.0282 19.7297 21.2327 19.6198 21.4795L17.4793 26.2823C17.3798 26.5057 17.348 26.7533 17.3878 26.9946C17.4276 27.2359 17.5373 27.4602 17.7033 27.6397L20.6407 30.817C20.7739 30.961 20.8713 31.1344 20.9251 31.3231C20.9788 31.5117 20.9874 31.7104 20.9502 31.903L20.3518 34.9962L20.3518 34.9964Z" fill="#E34444"/>
<path opacity="0.2" d="M9.67209 12.3826L10.9781 9.29441C12.6661 7.87413 14.6662 6.8712 16.8164 6.36845C18.904 5.88032 21.074 5.87758 23.1596 6.35801L24.4067 8.59167C24.4342 8.64107 24.4442 8.69835 24.4351 8.75415L25.4218 8.91663L24.4351 8.75416C24.4259 8.80997 24.398 8.86102 24.3561 8.89896L20.1512 12.7017C20.137 12.7146 20.1213 12.7258 20.1044 12.7351L18.1916 13.7914C18.1546 13.8119 18.1131 13.8226 18.0708 13.8226H14.7356C14.2928 13.8226 13.86 13.9532 13.4911 14.198L14.0442 15.0312L13.4911 14.198C13.1223 14.4429 12.8339 14.7911 12.662 15.1991L11.6825 17.5244L11.6453 17.5163C11.6043 17.5075 11.5662 17.4886 11.5345 17.4612C11.5027 17.4338 11.4784 17.3989 11.4637 17.3596L9.66824 12.5677C9.64579 12.5078 9.64717 12.4416 9.67209 12.3826Z" fill="#E34444" stroke="#E34444" stroke-width="2"/>
<path d="M20 35C28.2843 35 35 28.2843 35 20C35 11.7157 28.2843 5 20 5C11.7157 5 5 11.7157 5 20C5 28.2843 11.7157 35 20 35Z" stroke="#E34444" stroke-width="2" stroke-linecap="round" stroke-linejoin="round"/>
<path d="M33.464 26.6211L24.9818 21.4042C24.8331 21.3127 24.6669 21.2534 24.4939 21.2301L20.9285 20.7495C20.6608 20.7134 20.3886 20.765 20.1526 20.8966C19.9167 21.0282 19.7298 21.2327 19.6198 21.4795L17.4793 26.2823C17.3798 26.5057 17.348 26.7533 17.3878 26.9946C17.4276 27.2359 17.5373 27.4602 17.7033 27.6397L20.6407 30.817C20.7739 30.961 20.8713 31.1344 20.9251 31.3231C20.9788 31.5117 20.9874 31.7104 20.9502 31.903L20.3518 34.9962" stroke="#E34444" stroke-width="2" stroke-linecap="round" stroke-linejoin="round"/>
<path d="M10.1486 8.68848L8.75106 11.9931C8.62645 12.2878 8.61956 12.619 8.73181 12.9186L10.5273 17.7105C10.6008 17.9067 10.7225 18.0813 10.8811 18.2182C11.0397 18.3551 11.2303 18.45 11.4351 18.494L14.7836 19.2137C14.9694 19.2536 15.1436 19.3354 15.293 19.4528C15.4425 19.5702 15.5632 19.7201 15.646 19.8911L16.2406 21.1196C16.343 21.331 16.5028 21.5093 16.7018 21.634C16.9008 21.7588 17.1309 21.825 17.3658 21.825H19.4646" stroke="#E34444" stroke-width="2" stroke-linecap="round" stroke-linejoin="round"/>
<path d="M23.8222 5.49219L25.2805 8.10444C25.4184 8.35138 25.4685 8.63779 25.4225 8.91685C25.3766 9.19592 25.2373 9.45116 25.0276 9.64087L20.8227 13.4436C20.7514 13.5081 20.6728 13.5642 20.5886 13.6107L18.6758 14.667C18.4908 14.7692 18.2829 14.8228 18.0715 14.8228H14.7363C14.4903 14.8228 14.2499 14.8954 14.0449 15.0314C13.84 15.1674 13.6798 15.3609 13.5843 15.5876L12.2832 18.6764" stroke="#E34444" stroke-width="1.5" stroke-linecap="round" stroke-linejoin="round"/>
</svg>
