<svg width="40" height="40" viewBox="0 0 40 40" fill="none" xmlns="http://www.w3.org/2000/svg">
<path opacity="0.2" d="M31.25 23.8847L25.5004 29.6343C25.3478 29.7869 25.1583 29.8974 24.9502 29.9551C24.7422 30.0127 24.5228 30.0155 24.3134 29.9631L15.2576 27.6992C15.0878 27.6567 14.9287 27.579 14.7908 27.4712L6.25 20.7926L11.3397 11.2173L19.3585 8.87955C19.6449 8.79604 19.9518 8.81775 20.2237 8.94075L25.625 11.3847H22.3928C22.2286 11.3847 22.0661 11.4171 21.9144 11.4799C21.7628 11.5427 21.625 11.6348 21.5089 11.7509L15.3941 17.8656C15.2675 17.9923 15.1695 18.1446 15.1069 18.3124C15.0443 18.4802 15.0185 18.6595 15.0312 18.8381C15.0438 19.0168 15.0948 19.1906 15.1805 19.3478C15.2662 19.5051 15.3847 19.6421 15.528 19.7495L16.375 20.3848C17.2405 21.0339 18.2931 21.3847 19.375 21.3847C20.4569 21.3847 21.5095 21.0339 22.375 20.3848L24.375 18.8847L31.25 23.8847Z" fill="#23BD33"/>
<path d="M37.6121 19.0287L33.75 20.9598L28.75 11.3845L32.6515 9.43373C32.9446 9.28717 33.2835 9.26158 33.5953 9.36248C33.9071 9.46337 34.1668 9.68268 34.3185 9.97317L38.1611 17.3321C38.238 17.4792 38.2847 17.6402 38.2987 17.8056C38.3126 17.971 38.2935 18.1376 38.2424 18.2955C38.1913 18.4534 38.1092 18.5996 38.001 18.7255C37.8928 18.8514 37.7606 18.9545 37.6121 19.0287V19.0287Z" stroke="#23BD33" stroke-width="2" stroke-linecap="round" stroke-linejoin="round"/>
<path d="M6.25038 20.7923L2.38825 18.8612C2.23977 18.787 2.10757 18.6839 1.99936 18.558C1.89114 18.4322 1.80909 18.286 1.75798 18.128C1.70687 17.9701 1.68774 17.8036 1.70169 17.6381C1.71564 17.4727 1.7624 17.3118 1.83923 17.1646L5.68188 9.8057C5.83357 9.5152 6.09327 9.29589 6.40507 9.195C6.71686 9.0941 7.05581 9.11969 7.34893 9.26624L11.2504 11.217L6.25038 20.7923Z" stroke="#23BD33" stroke-width="2" stroke-linecap="round" stroke-linejoin="round"/>
<path d="M33.75 20.9599L31.25 23.8846L25.5004 29.6342C25.3478 29.7868 25.1583 29.8973 24.9502 29.9549C24.7422 30.0126 24.5228 30.0153 24.3134 29.963L15.2576 27.699C15.0878 27.6566 14.9287 27.5789 14.7908 27.4711L6.25 20.7925" stroke="#23BD33" stroke-width="2" stroke-linecap="round" stroke-linejoin="round"/>
<path d="M31.2493 23.8848L24.3743 18.8848L22.3743 20.3848C21.5089 21.0339 20.4562 21.3848 19.3743 21.3848C18.2925 21.3848 17.2398 21.0339 16.3743 20.3848L15.5273 19.7495C15.3841 19.6421 15.2656 19.5051 15.1798 19.3478C15.0941 19.1906 15.0432 19.0168 15.0305 18.8381C15.0178 18.6595 15.0436 18.4802 15.1063 18.3124C15.1689 18.1446 15.2668 17.9923 15.3935 17.8656L21.5082 11.7509C21.6243 11.6348 21.7621 11.5427 21.9137 11.4799C22.0654 11.4171 22.2279 11.3848 22.3921 11.3848H28.7493" stroke="#23BD33" stroke-width="2" stroke-linecap="round" stroke-linejoin="round"/>
<path d="M11.3398 11.2173L19.3586 8.87955C19.645 8.79604 19.9519 8.81775 20.2238 8.94075L25.6251 11.3848" stroke="#23BD33" stroke-width="2" stroke-linecap="round" stroke-linejoin="round"/>
<path d="M17.5 33.2596L12.7907 32.0823C12.5996 32.0345 12.4225 31.9423 12.2738 31.813L8.75 28.75" stroke="#23BD33" stroke-width="2" stroke-linecap="round" stroke-linejoin="round"/>
</svg>
