<svg width="25" height="24" viewBox="0 0 25 24" fill="none" xmlns="http://www.w3.org/2000/svg">
<path d="M12.9453 20.25C12.9453 20.25 3.57031 15 3.57031 8.62501C3.5705 7.49826 3.96092 6.40635 4.6752 5.53493C5.38947 4.66351 6.38351 4.06636 7.4883 3.84501C8.5931 3.62367 9.74045 3.79179 10.7353 4.32079C11.7301 4.84979 12.5111 5.70702 12.9453 6.74673L12.9453 6.74673C13.3795 5.70702 14.1605 4.84979 15.1553 4.32079C16.1502 3.79179 17.2975 3.62367 18.4023 3.84501C19.5071 4.06636 20.5012 4.66351 21.2154 5.53493C21.9297 6.40635 22.3201 7.49826 22.3203 8.62501C22.3203 15 12.9453 20.25 12.9453 20.25Z" stroke="#FF6636" stroke-width="1.5" stroke-linecap="round" stroke-linejoin="round"/>
</svg>
