<svg width="19" height="18" viewBox="0 0 19 18" fill="none" xmlns="http://www.w3.org/2000/svg">
<path d="M18.4507 5.29205C18.4086 4.33564 18.2539 3.67812 18.0324 3.10836C17.8038 2.50359 17.4522 1.96213 16.9915 1.51201C16.5414 1.05489 15.9963 0.699691 15.3986 0.474702C14.8255 0.253147 14.1714 0.0984842 13.215 0.0563159C12.2515 0.0105764 11.9456 0 9.50174 0C7.05791 0 6.75202 0.0105764 5.79204 0.0527447C4.83563 0.0949129 4.17811 0.249713 3.6085 0.471131C3.00358 0.699691 2.46213 1.05132 2.01201 1.51201C1.55489 1.96213 1.19983 2.50716 0.974701 3.10493C0.753147 3.67812 0.598484 4.33207 0.556316 5.28848C0.510576 6.25203 0.5 6.55792 0.5 9.00176C0.5 11.4456 0.510576 11.7515 0.552745 12.7115C0.594913 13.6679 0.749713 14.3254 0.971267 14.8952C1.19983 15.4999 1.55489 16.0414 2.01201 16.4915C2.46213 16.9486 3.00715 17.3038 3.60493 17.5288C4.17811 17.7504 4.83206 17.905 5.78861 17.9472C6.74845 17.9895 7.05448 17.9999 9.49831 17.9999C11.9421 17.9999 12.248 17.9895 13.208 17.9472C14.1644 17.905 14.8219 17.7504 15.3916 17.5288C16.6012 17.0611 17.5577 16.1047 18.0254 14.8952C18.2468 14.322 18.4016 13.6679 18.4437 12.7115C18.4859 11.7515 18.4965 11.4456 18.4965 9.00176C18.4965 6.55792 18.4929 6.25203 18.4507 5.29205ZM16.8298 12.6411C16.7911 13.5202 16.6434 13.9949 16.5203 14.3114C16.2179 15.0956 15.5955 15.7179 14.8114 16.0204C14.4949 16.1434 14.0168 16.2911 13.1411 16.3297C12.1917 16.372 11.907 16.3824 9.50531 16.3824C7.10365 16.3824 6.81534 16.372 5.86937 16.3297C4.9903 16.2911 4.51559 16.1434 4.19913 16.0204C3.8089 15.8761 3.4537 15.6476 3.16539 15.3487C2.8665 15.0568 2.63794 14.7052 2.49372 14.315C2.37065 13.9985 2.22299 13.5202 2.18439 12.6447C2.14209 11.6953 2.13165 11.4104 2.13165 9.00876C2.13165 6.60709 2.14209 6.31878 2.18439 5.37295C2.22299 4.49387 2.37065 4.01917 2.49372 3.7027C2.63794 3.31234 2.8665 2.95727 3.16896 2.66883C3.4607 2.36994 3.81233 2.14138 4.2027 1.99729C4.51917 1.87422 4.99744 1.72656 5.87294 1.68783C6.82235 1.64566 7.10722 1.63508 9.50875 1.63508C11.914 1.63508 12.1987 1.64566 13.1447 1.68783C14.0238 1.72656 14.4985 1.87422 14.8149 1.99729C15.2052 2.14138 15.5604 2.36994 15.8487 2.66883C16.1476 2.96071 16.3761 3.31234 16.5203 3.7027C16.6434 4.01917 16.7911 4.49731 16.8298 5.37295C16.872 6.32236 16.8826 6.60709 16.8826 9.00876C16.8826 11.4104 16.872 11.6917 16.8298 12.6411Z" fill="white"/>
<path d="M9.50188 4.37744C6.94912 4.37744 4.87793 6.44849 4.87793 9.00139C4.87793 11.5543 6.94912 13.6253 9.50188 13.6253C12.0548 13.6253 14.1258 11.5543 14.1258 9.00139C14.1258 6.44849 12.0548 4.37744 9.50188 4.37744ZM9.50188 12.0008C7.84578 12.0008 6.50244 10.6576 6.50244 9.00139C6.50244 7.34515 7.84578 6.00195 9.50188 6.00195C11.1581 6.00195 12.5013 7.34515 12.5013 9.00139C12.5013 10.6576 11.1581 12.0008 9.50188 12.0008Z" fill="white"/>
<path d="M15.3876 4.19521C15.3876 4.79133 14.9043 5.27469 14.308 5.27469C13.7119 5.27469 13.2285 4.79133 13.2285 4.19521C13.2285 3.59894 13.7119 3.11572 14.308 3.11572C14.9043 3.11572 15.3876 3.59894 15.3876 4.19521Z" fill="white"/>
</svg>
