<svg width="20" height="20" viewBox="0 0 20 20" fill="none" xmlns="http://www.w3.org/2000/svg">
<g clip-path="url(#clip0_4654_7802)">
<path d="M19.9795 5.88005C19.9326 4.81738 19.7608 4.0868 19.5146 3.45374C19.2606 2.78176 18.8699 2.18014 18.358 1.68002C17.8579 1.1721 17.2523 0.777435 16.5881 0.527447C15.9514 0.281274 15.2247 0.109427 14.162 0.0625732C13.0914 0.0117516 12.7515 0 10.0361 0C7.32075 0 6.98087 0.0117516 5.91423 0.0586052C4.85155 0.105459 4.12097 0.277459 3.48807 0.523479C2.81594 0.777435 2.21432 1.16814 1.71419 1.68002C1.20628 2.18014 0.811766 2.78573 0.561626 3.44992C0.315454 4.0868 0.143606 4.81341 0.0967529 5.87609C0.0459312 6.9467 0.0341797 7.28658 0.0341797 10.002C0.0341797 12.7173 0.0459312 13.0572 0.0927848 14.1239C0.139638 15.1865 0.311638 15.9171 0.55781 16.5502C0.811766 17.2221 1.20628 17.8238 1.71419 18.3239C2.21432 18.8318 2.81991 19.2265 3.4841 19.4765C4.12097 19.7226 4.84758 19.8945 5.91041 19.9413C6.9769 19.9883 7.31694 19.9999 10.0323 19.9999C12.7477 19.9999 13.0876 19.9883 14.1542 19.9413C15.2169 19.8945 15.9475 19.7226 16.5804 19.4765C17.9245 18.9568 18.9871 17.8941 19.5068 16.5502C19.7528 15.9133 19.9248 15.1865 19.9717 14.1239C20.0185 13.0572 20.0303 12.7173 20.0303 10.002C20.0303 7.28658 20.0263 6.9467 19.9795 5.88005ZM18.1784 14.0457C18.1354 15.0225 17.9713 15.5499 17.8346 15.9015C17.4985 16.7728 16.807 17.4643 15.9357 17.8004C15.5841 17.9372 15.0528 18.1012 14.0799 18.1441C13.025 18.1911 12.7086 18.2027 10.0401 18.2027C7.37157 18.2027 7.05123 18.1911 6.00015 18.1441C5.0234 18.1012 4.49595 17.9372 4.14432 17.8004C3.71074 17.6402 3.31607 17.3862 2.99572 17.0541C2.66363 16.7298 2.40967 16.3391 2.24942 15.9055C2.11268 15.5539 1.94861 15.0225 1.90573 14.0497C1.85872 12.9948 1.84712 12.6783 1.84712 10.0097C1.84712 7.34122 1.85872 7.02087 1.90573 5.96995C1.94861 4.99319 2.11268 4.46575 2.24942 4.11412C2.40967 3.68038 2.66363 3.28586 2.99969 2.96536C3.32385 2.63327 3.71455 2.37931 4.14829 2.21921C4.49992 2.08247 5.03133 1.9184 6.00412 1.87537C7.05901 1.82851 7.37554 1.81676 10.0439 1.81676C12.7164 1.81676 13.0328 1.82851 14.0838 1.87537C15.0606 1.9184 15.588 2.08247 15.9397 2.21921C16.3733 2.37931 16.7679 2.63327 17.0883 2.96536C17.4204 3.28967 17.6743 3.68038 17.8346 4.11412C17.9713 4.46575 18.1354 4.99701 18.1784 5.96995C18.2253 7.02484 18.237 7.34122 18.237 10.0097C18.237 12.6783 18.2253 12.9908 18.1784 14.0457Z" fill="#4E5566"/>
<path d="M10.0362 4.86426C7.19976 4.86426 4.89844 7.16543 4.89844 10.002C4.89844 12.8385 7.19976 15.1397 10.0362 15.1397C12.8727 15.1397 15.1739 12.8385 15.1739 10.002C15.1739 7.16543 12.8727 4.86426 10.0362 4.86426ZM10.0362 13.3347C8.19605 13.3347 6.70345 11.8423 6.70345 10.002C6.70345 8.16172 8.19605 6.66927 10.0362 6.66927C11.8764 6.66927 13.3689 8.16172 13.3689 10.002C13.3689 11.8423 11.8764 13.3347 10.0362 13.3347Z" fill="#4E5566"/>
<path d="M16.5767 4.66134C16.5767 5.3237 16.0397 5.86077 15.3772 5.86077C14.7148 5.86077 14.1777 5.3237 14.1777 4.66134C14.1777 3.99882 14.7148 3.46191 15.3772 3.46191C16.0397 3.46191 16.5767 3.99882 16.5767 4.66134Z" fill="#4E5566"/>
</g>
<defs>
<clipPath id="clip0_4654_7802">
<rect width="20" height="20" fill="white"/>
</clipPath>
</defs>
</svg>
