<svg width="25" height="24" viewBox="0 0 25 24" fill="none" xmlns="http://www.w3.org/2000/svg">
<path d="M6.79721 11.36L18.1089 4.44732C18.2226 4.37784 18.3528 4.3399 18.486 4.33741C18.6192 4.33492 18.7507 4.36796 18.8669 4.43313C18.9831 4.49831 19.0798 4.59327 19.1472 4.70824C19.2145 4.82321 19.25 4.95404 19.25 5.08728V18.9127C19.25 19.0459 19.2145 19.1768 19.1472 19.2917C19.0798 19.4067 18.9831 19.5017 18.8669 19.5668C18.7507 19.632 18.6192 19.6651 18.486 19.6626C18.3528 19.6601 18.2226 19.6221 18.1089 19.5527L6.79721 12.6399C6.68758 12.573 6.597 12.4789 6.53415 12.3669C6.4713 12.2548 6.4383 12.1285 6.4383 12C6.4383 11.8715 6.4713 11.7452 6.53415 11.6331C6.597 11.5211 6.68758 11.427 6.79721 11.36Z" fill="white"/>
<path d="M5.75 3.75V20.25" stroke="white" stroke-width="1.5" stroke-linecap="round" stroke-linejoin="round"/>
</svg>
