<svg width="19" height="18" viewBox="0 0 19 18" fill="none" xmlns="http://www.w3.org/2000/svg">
<path d="M18.4921 18.0002V17.9994H18.4966V11.3979C18.4966 8.16841 17.8013 5.68066 14.0258 5.68066C12.2108 5.68066 10.9928 6.67666 10.4955 7.62091H10.443V5.98216H6.86328V17.9994H10.5908V12.0489C10.5908 10.4822 10.8878 8.96716 12.828 8.96716C14.7398 8.96716 14.7683 10.7552 14.7683 12.1494V18.0002H18.4921Z" fill="white"/>
<path d="M0.792969 5.98291H4.52497V18.0002H0.792969V5.98291Z" fill="white"/>
<path d="M2.65759 0C1.46434 0 0.496094 0.96825 0.496094 2.1615C0.496094 3.35475 1.46434 4.34325 2.65759 4.34325C3.85084 4.34325 4.81909 3.35475 4.81909 2.1615C4.81834 0.96825 3.85009 0 2.65759 0V0Z" fill="white"/>
</svg>
