<svg width="17" height="16" viewBox="0 0 17 16" fill="none" xmlns="http://www.w3.org/2000/svg">
<path d="M9.12726 11.9208L12.2795 13.9179C12.6824 14.1732 13.1827 13.7935 13.0631 13.3232L12.1524 9.74052C12.1267 9.64073 12.1298 9.53573 12.1611 9.4376C12.1925 9.33946 12.2509 9.25218 12.3297 9.18577L15.1564 6.83306C15.5278 6.52392 15.3361 5.90751 14.8589 5.87654L11.1674 5.63696C11.068 5.62986 10.9726 5.59465 10.8925 5.53545C10.8123 5.47625 10.7505 5.39548 10.7145 5.30255L9.33768 1.83549C9.30026 1.73685 9.23371 1.65194 9.14689 1.59201C9.06006 1.53209 8.95706 1.5 8.85157 1.5C8.74607 1.5 8.64307 1.53209 8.55624 1.59201C8.46942 1.65194 8.40287 1.73685 8.36545 1.83549L6.98868 5.30255C6.95261 5.39548 6.89088 5.47625 6.81068 5.53545C6.73048 5.59465 6.63511 5.62986 6.53568 5.63696L2.84419 5.87654C2.367 5.90751 2.17529 6.52392 2.54671 6.83306L5.37342 9.18577C5.45219 9.25218 5.51063 9.33946 5.542 9.4376C5.57337 9.53573 5.57641 9.64073 5.55077 9.74052L4.70615 13.063C4.56267 13.6274 5.163 14.083 5.64652 13.7767L8.57587 11.9208C8.65826 11.8683 8.7539 11.8405 8.85157 11.8405C8.94923 11.8405 9.04487 11.8683 9.12726 11.9208V11.9208Z" fill="#FD8E1F"/>
</svg>
