<svg width="21" height="20" viewBox="0 0 21 20" fill="none" xmlns="http://www.w3.org/2000/svg">
<path d="M10.8212 14.901L14.7614 17.3974C15.2651 17.7165 15.8905 17.2419 15.741 16.654L14.6026 12.1756C14.5705 12.0509 14.5743 11.9197 14.6135 11.797C14.6527 11.6743 14.7258 11.5652 14.8242 11.4822L18.3576 8.54132C18.8219 8.1549 18.5823 7.38439 17.9858 7.34568L13.3714 7.0462C13.2471 7.03732 13.1279 6.99332 13.0277 6.91931C12.9274 6.84531 12.8503 6.74435 12.8052 6.62819L11.0842 2.29436C11.0374 2.17106 10.9542 2.06492 10.8457 1.99002C10.7372 1.91511 10.6084 1.875 10.4766 1.875C10.3447 1.875 10.2159 1.91511 10.1074 1.99002C9.99888 2.06492 9.9157 2.17106 9.86892 2.29436L8.14796 6.62819C8.10287 6.74435 8.02571 6.84531 7.92546 6.91931C7.82521 6.99332 7.706 7.03732 7.58171 7.0462L2.96735 7.34568C2.37086 7.38439 2.13123 8.1549 2.5955 8.54132L6.12888 11.4822C6.22735 11.5652 6.30039 11.6743 6.33961 11.797C6.37883 11.9197 6.38262 12.0509 6.35057 12.1756L5.2948 16.3288C5.11545 17.0343 5.86586 17.6038 6.47026 17.2209L10.132 14.901C10.2349 14.8354 10.3545 14.8006 10.4766 14.8006C10.5986 14.8006 10.7182 14.8354 10.8212 14.901V14.901Z" fill="#FD8E1F"/>
</svg>
