<svg width="20" height="20" viewBox="0 0 20 20" fill="none" xmlns="http://www.w3.org/2000/svg">
<path d="M20 4.14641C19.2563 4.47266 18.4637 4.68891 17.6375 4.79391C18.4875 4.28641 19.1363 3.48891 19.4412 2.52766C18.6488 3.00016 17.7738 3.33391 16.8412 3.52016C16.0887 2.71891 15.0162 2.22266 13.8462 2.22266C11.5763 2.22266 9.74875 4.06516 9.74875 6.32391C9.74875 6.64891 9.77625 6.96141 9.84375 7.25891C6.435 7.09266 3.41875 5.45891 1.3925 2.97016C1.03875 3.58391 0.83125 4.28641 0.83125 5.04266C0.83125 6.46266 1.5625 7.72141 2.6525 8.45016C1.99375 8.43766 1.3475 8.24641 0.8 7.94516C0.8 7.95766 0.8 7.97391 0.8 7.99016C0.8 9.98266 2.22125 11.6377 4.085 12.0189C3.75125 12.1102 3.3875 12.1539 3.01 12.1539C2.7475 12.1539 2.4825 12.1389 2.23375 12.0839C2.765 13.7077 4.2725 14.9014 6.065 14.9402C4.67 16.0314 2.89875 16.6889 0.98125 16.6889C0.645 16.6889 0.3225 16.6739 0 16.6327C1.81625 17.8039 3.96875 18.4727 6.29 18.4727C13.835 18.4727 17.96 12.2227 17.96 6.80516C17.96 6.62391 17.9538 6.44891 17.945 6.27516C18.7588 5.69766 19.4425 4.97641 20 4.14641Z" fill="#FF6636"/>
</svg>
