<svg width="21" height="20" viewBox="0 0 21 20" fill="none" xmlns="http://www.w3.org/2000/svg">
<path d="M7.375 12.5C9.61866 12.5 11.4375 10.6812 11.4375 8.4375C11.4375 6.19384 9.61866 4.375 7.375 4.375C5.13134 4.375 3.3125 6.19384 3.3125 8.4375C3.3125 10.6812 5.13134 12.5 7.375 12.5Z" stroke="#564FFD" stroke-width="1.5" stroke-miterlimit="10"/>
<path d="M12.6416 4.52628C13.2004 4.36885 13.7864 4.33299 14.3602 4.4211C14.934 4.50922 15.4822 4.71928 15.968 5.03713C16.4538 5.35497 16.8658 5.77323 17.1763 6.26372C17.4868 6.75421 17.6886 7.30555 17.7681 7.8806C17.8476 8.45565 17.803 9.04106 17.6372 9.5974C17.4714 10.1537 17.1883 10.6681 16.807 11.1058C16.4256 11.5435 15.9549 11.8944 15.4266 12.1349C14.8982 12.3754 14.3244 12.4999 13.7439 12.5" stroke="#564FFD" stroke-width="1.5" stroke-linecap="round" stroke-linejoin="round"/>
<path d="M1.75 15.4216C2.38448 14.5191 3.22679 13.7825 4.20582 13.274C5.18485 12.7655 6.27186 12.5 7.37507 12.5C8.47828 12.5 9.5653 12.7654 10.5444 13.2738C11.5234 13.7822 12.3658 14.5187 13.0004 15.4212" stroke="#564FFD" stroke-width="1.5" stroke-linecap="round" stroke-linejoin="round"/>
<path d="M13.7441 12.5C14.8475 12.4992 15.9347 12.7643 16.9139 13.2728C17.893 13.7813 18.7352 14.5182 19.3692 15.4212" stroke="#564FFD" stroke-width="1.5" stroke-linecap="round" stroke-linejoin="round"/>
</svg>
